<?xml version="1.0" encoding="utf-8"?>
<!-- Generator: Adobe Illustrator 16.0.0, SVG Export Plug-In . SVG Version: 6.00 Build 0)  -->
<!DOCTYPE svg PUBLIC "-//W3C//DTD SVG 1.1//EN" "http://www.w3.org/Graphics/SVG/1.1/DTD/svg11.dtd">
<svg version="1.1" id="Layer_1" xmlns="http://www.w3.org/2000/svg" xmlns:xlink="http://www.w3.org/1999/xlink" x="0px" y="0px"
	 width="500px" height="500px" viewBox="0 0 500 500" enable-background="new 0 0 500 500" xml:space="preserve">
<path fill-rule="evenodd" clip-rule="evenodd" d="M320.753,368.073c-21.226,27.731-42.473,55.45-63.657,83.217
	c-3.972,5.205-8.141,9.453-15.314,10.375c-41.334,5.311-80.7,17.429-118.481,34.908c-1.334,0.614-3.202,0.078-7.27,0.078
	c9.508-20.402,17.162-40.146,16.084-62.202c-0.879-17.995-6.498-34.044-14.747-49.713c-4.928-9.357-9.513-9.331-17.291-2.938
	c-19.899,16.356-42.384,27.771-68.601,32.535c37.279-23.962,59.571-56.227,54.111-101.363C80.117,267.753,51.585,240.909,9,226.715
	c28.311-3.313,53.634,5.086,77.866,17.647c22.251,11.537,22.529,11.865,25.221-13.429c3.748-35.229-3.624-68.412-21.402-98.954
	C70.757,97.747,49.748,64.114,37.492,26.061c-2.389-7.421-4.42-14.958-4.64-24.061c18.539,31.749,49.238,40.355,81.075,47.083
	c33.163,7.012,58.42,31.171,89.964,41.803c2.442,0.823,4.631,3.64,6.055,6.055c21.097,35.717,40.271,72.383,48.275,113.554
	c3.715,19.108,0.996,38.24-4.016,56.994c11.928-23.858,16.692-48.93,11.945-75.531c-4.728-26.448-12.141-52.176-22.051-77.127
	c-4.151-10.451-1.44-14.262,9.593-12.008c1.714,0.352,3.421,0.728,5.136,1.048c41.228,7.763,39.903,8.074,49.528,49.064
	c10.724,45.636,10.146,88.934-16.82,129.473c25.925-24.583,37.718-67.974,31.464-112.075c-2.038-14.399-3.995-28.818-5.614-43.271
	c-1.318-11.742,4.023-15.533,14.331-9.816c37.038,20.543,68.121,47.032,83.646,87.967c9.364,24.697,18.708,49.365,41.892,64.85
	c10.402,6.946,21.712,12.534,32.732,18.808c-3.594,6.018-9.256,6.53-13.695,8.925c-24.907,13.429-44.18,31.744-54.228,59.022
	c-23.75,64.483-75.488,91.216-138.859,101.885c-3.896,0.656-8.538,2.435-11.123-1.913c-2.538-4.269,1.277-7.732,3.303-11.041
	c15.744-25.721,31.652-51.343,47.506-76.994C322.178,368.523,321.464,368.299,320.753,368.073z"/>
</svg>
