<?xml version="1.0" encoding="utf-8"?>
<!-- Generator: Adobe Illustrator 16.0.0, SVG Export Plug-In . SVG Version: 6.00 Build 0)  -->
<!DOCTYPE svg PUBLIC "-//W3C//DTD SVG 1.1//EN" "http://www.w3.org/Graphics/SVG/1.1/DTD/svg11.dtd">
<svg version="1.1" id="Layer_1" xmlns="http://www.w3.org/2000/svg" xmlns:xlink="http://www.w3.org/1999/xlink" x="0px" y="0px"
	 width="1800px" height="1000px" viewBox="0 0 1800 1000" enable-background="new 0 0 1800 1000" xml:space="preserve">
<g>
	<linearGradient id="Background_3_" gradientUnits="userSpaceOnUse" x1="1300" y1="0" x2="1300" y2="1000.0005">
		<stop  offset="0" style="stop-color:#7FF0D9"/>
		<stop  offset="0.1704" style="stop-color:#7DECDA"/>
		<stop  offset="0.3389" style="stop-color:#76E0DC"/>
		<stop  offset="0.5067" style="stop-color:#6ACCE0"/>
		<stop  offset="0.674" style="stop-color:#5AB0E6"/>
		<stop  offset="0.8395" style="stop-color:#458DED"/>
		<stop  offset="1" style="stop-color:#2C63F5"/>
	</linearGradient>
	<rect id="Background_1_" x="800" fill="url(#Background_3_)" width="1000" height="1000"/>
	<linearGradient id="Background_4_" gradientUnits="userSpaceOnUse" x1="1748.0781" y1="-33.9985" x2="842.4983" y2="1045.2294">
		<stop  offset="0.0024" style="stop-color:#FFF0D9"/>
		<stop  offset="0.141" style="stop-color:#FBEEDA"/>
		<stop  offset="0.278" style="stop-color:#EFEADB"/>
		<stop  offset="0.4145" style="stop-color:#DBE2DE"/>
		<stop  offset="0.5506" style="stop-color:#BFD7E1"/>
		<stop  offset="0.6866" style="stop-color:#9BC9E6"/>
		<stop  offset="0.8225" style="stop-color:#6FB8EC"/>
		<stop  offset="0.9559" style="stop-color:#3CA3F3"/>
		<stop  offset="0.9946" style="stop-color:#2C9DF5"/>
	</linearGradient>
	<rect id="Background_2_" x="800" opacity="0.2" fill="url(#Background_4_)" width="1000" height="1000"/>
	<linearGradient id="_x31__1_" gradientUnits="userSpaceOnUse" x1="1253.7813" y1="2.3745" x2="1253.7813" y2="505.6187">
		<stop  offset="0.0024" style="stop-color:#FFF0D9"/>
		<stop  offset="0.3722" style="stop-color:#FDF0D9"/>
		<stop  offset="0.5054" style="stop-color:#F6F1DA"/>
		<stop  offset="0.6003" style="stop-color:#EBF1DC"/>
		<stop  offset="0.6771" style="stop-color:#DAF2DF"/>
		<stop  offset="0.7429" style="stop-color:#C4F3E2"/>
		<stop  offset="0.8011" style="stop-color:#A8F5E6"/>
		<stop  offset="0.8538" style="stop-color:#88F7EB"/>
		<stop  offset="0.9023" style="stop-color:#62F9F0"/>
		<stop  offset="0.9473" style="stop-color:#37FCF7"/>
		<stop  offset="0.9873" style="stop-color:#09FEFE"/>
		<stop  offset="0.9946" style="stop-color:#00FFFF"/>
	</linearGradient>
	<polygon id="_x31_" opacity="0.1" fill="url(#_x31__1_)" points="1674.187,0.16 800,348.747 800,503 1707.563,-0.244 	"/>
	<path fill="#37B0C4" d="M1800,498.903c-31.447,6.326-60.229-10.509-88.273-22.307c-30.928-13.01-64.367-25.268-98.264-18.262
		c-20.304,4.196-39.36,12.334-59.182,18.169c-62.298,18.341-119.883,8.439-182.921,4.726c-44.655-2.63-80.966,25.436-123.041,35.194
		c-23.278,5.398-46.294,11.227-70.365,11.324c-38.86,0.157-70.958-14.906-100.964-38.468c-26.973-21.18-55.696-44.654-89.422-54.241
		c-31.236-8.879-66.193-6.277-97.257,2.005c-32.753,8.733-57.011,33.528-89.019,42.563L800,1000h1000V498.903z"/>
	<linearGradient id="_x32__1_" gradientUnits="userSpaceOnUse" x1="1205.0205" y1="292.4814" x2="1323.7124" y2="498.0618">
		<stop  offset="0.0024" style="stop-color:#FFF0D9"/>
		<stop  offset="0.3722" style="stop-color:#FDF0D9"/>
		<stop  offset="0.5054" style="stop-color:#F6F1DA"/>
		<stop  offset="0.6003" style="stop-color:#EBF1DC"/>
		<stop  offset="0.6771" style="stop-color:#DAF2DF"/>
		<stop  offset="0.7429" style="stop-color:#C4F3E2"/>
		<stop  offset="0.8011" style="stop-color:#A8F5E6"/>
		<stop  offset="0.8538" style="stop-color:#88F7EB"/>
		<stop  offset="0.9023" style="stop-color:#62F9F0"/>
		<stop  offset="0.9473" style="stop-color:#37FCF7"/>
		<stop  offset="0.9873" style="stop-color:#09FEFE"/>
		<stop  offset="0.9946" style="stop-color:#00FFFF"/>
	</linearGradient>
	<polygon id="_x32_" opacity="0.1" fill="url(#_x32__1_)" points="1709.563,-0.244 800,552.681 800,799 1733.615,0 	"/>
	<path fill="#3391A0" d="M1800,651.859c-9.415-24.118-36.573-22.962-58.306-23.355c-31.764-0.577-60.46,9.64-90.557,18.274
		c-29.911,8.581-63.205,12.071-94.235,10.509c-60.163-3.032-117.967-51.57-178.518-30.622
		c-20.521,7.101-40.674,17.273-62.887,17.189c-23.109-0.087-46.037-8.648-68.773-12.156c-41.49-6.401-84.08-2.28-125.844-7.338
		c-30.166-3.652-60.504-8.307-90.982-7.029c-34.975,1.466-65.338,16.188-98.799,24.482c-42.715,10.59-95.208,3.125-129.808-25.434
		L800,1000h1000V651.859z"/>
	<linearGradient id="_x33__1_" gradientUnits="userSpaceOnUse" x1="1207.8418" y1="425.9473" x2="1571.7822" y2="789.8877">
		<stop  offset="0.0024" style="stop-color:#FFF0D9"/>
		<stop  offset="0.3722" style="stop-color:#FDF0D9"/>
		<stop  offset="0.5054" style="stop-color:#F6F1DA"/>
		<stop  offset="0.6003" style="stop-color:#EBF1DC"/>
		<stop  offset="0.6771" style="stop-color:#DAF2DF"/>
		<stop  offset="0.7429" style="stop-color:#C4F3E2"/>
		<stop  offset="0.8011" style="stop-color:#A8F5E6"/>
		<stop  offset="0.8538" style="stop-color:#88F7EB"/>
		<stop  offset="0.9023" style="stop-color:#62F9F0"/>
		<stop  offset="0.9473" style="stop-color:#37FCF7"/>
		<stop  offset="0.9873" style="stop-color:#09FEFE"/>
		<stop  offset="0.9946" style="stop-color:#00FFFF"/>
	</linearGradient>
	<polygon id="_x33_" opacity="0.1" fill="url(#_x33__1_)" points="1763.667,-0.122 1357.882,1000 800,1000 800,830 1736.615,0 	"/>
	<path fill-rule="evenodd" clip-rule="evenodd" fill="#1F5F66" d="M1799.996,687.943c-16.357,9.268-30.089,25.091-44.419,37.095
		c-20.524,17.194-39.888,22.772-65.41,30.22c-17.044,4.973-31.952,11.639-47.696,19.705
		c-71.256,36.509-155.527,15.948-231.33,18.723c-25.587,0.936-48.827,11.599-71.889,21.772
		c-38.848,17.138-76.27,40.232-114.17,59.58c-19.342,9.874-38.735,20.639-60.105,25.423
		c-75.072,16.808-155.289-14.686-227.648,17.754c-23.311,10.45-44.377,9.6-69.344,10.688c-24.776,1.081-46.23,7.102-70.018,12.14
		c-1.331,0.281,1.846,53.093,2.034,58.958h1000C1800,1000,1800,687.941,1799.996,687.943z"/>
	<linearGradient id="_x34__1_" gradientUnits="userSpaceOnUse" x1="1433.3789" y1="339.3496" x2="1931.4397" y2="837.4103">
		<stop  offset="0.0024" style="stop-color:#FFF0D9"/>
		<stop  offset="0.3722" style="stop-color:#FDF0D9"/>
		<stop  offset="0.5054" style="stop-color:#F6F1DA"/>
		<stop  offset="0.6003" style="stop-color:#EBF1DC"/>
		<stop  offset="0.6771" style="stop-color:#DAF2DF"/>
		<stop  offset="0.7429" style="stop-color:#C4F3E2"/>
		<stop  offset="0.8011" style="stop-color:#A8F5E6"/>
		<stop  offset="0.8538" style="stop-color:#88F7EB"/>
		<stop  offset="0.9023" style="stop-color:#62F9F0"/>
		<stop  offset="0.9473" style="stop-color:#37FCF7"/>
		<stop  offset="0.9873" style="stop-color:#09FEFE"/>
		<stop  offset="0.9946" style="stop-color:#00FFFF"/>
	</linearGradient>
	<polygon id="_x34_" opacity="0.1" fill="url(#_x34__1_)" points="1800.059,0 1763.667,1000 1388,1000 1767.667,-0.122 	"/>
	<path id="Turtle" fill-rule="evenodd" clip-rule="evenodd" fill="#37B0C4" d="M1680.913,431.446
		c-2.122,1.252-2.882,2.859-3.818,4.304c-0.749,1.153-1.767,1.778-3.007,2.413c-3.032,1.548-5.435,0.074-7.816-1.262
		c-3.495-1.959-3.832-2.309-0.587-5.391c4.354-4.139,8.907-8.327,15.256-9.339c1.545-0.247,1.654-1.436,1.964-2.524
		c2.308-8.123,6.605-14.985,12.908-20.613c2.163-1.933,4.735-3.281,7.359-5.129c-3.359-1.711-6.597-1.589-9.905-1.346
		c-3.79,0.278-7.574,1.058-11.401,0.39c-1.003-0.175-2.073-0.322-2.32-1.515c-0.226-1.102,0.472-1.92,1.271-2.542
		c0.913-0.711,1.858-1.434,2.898-1.922c7.378-3.469,15.067-5.69,23.311-5.297c4.58,0.219,6.838,3.479,8.325,7.217
		c0.797,1.999,1.761,2.854,3.928,2.895c1.793,0.033,3.608,0.549,5.354,1.059c3.508,1.027,5.617,0.302,7.467-2.899
		c1.704-2.952,3.251-6.053,6.017-8.166c2.972-2.271,6.613-2.355,10.146-2.447c1.271-0.032,1.691,1.174,1.7,2.361
		c0.045,6.065-1.519,11.271-7.365,14.359c-1.887,0.996-3.787,2.064-4.712,4.249c-0.746,1.758-1.096,3.377-0.177,5.231
		c1.037,2.096,1.418,4.429,1.624,6.747c0.114,1.316,0.644,2.031,1.854,2.612c9.016,4.324,10.938,8.66,8.027,18.242
		c-1.657,5.452-4.531,10.317-7.704,15.011c-0.138,0.206-0.297,0.403-0.474,0.577c-0.996,0.977-1.909,2.266-3.582,1.602
		c-1.593-0.633-1.846-2.102-1.69-3.545c0.319-2.966,0.814-5.913,1.2-8.872c0.479-3.675,0.872-7.355-0.157-11.2
		c-0.376,0.317-0.622,0.432-0.726,0.624c-5.506,10.234-14.296,16.383-25.054,19.997c-1.97,0.661-3.134,1.425-3.051,3.734
		c0.066,1.865-1.032,3.471-2.025,5.013c-2.069,3.212-4.154,6.424-6.853,9.157c-2.524,2.56-3.215,2.521-5.147-0.384
		c-1.601-2.405-2.977-4.794-1.626-8.001c0.718-1.705,1.848-2.633,3.173-3.626c1.146-0.859,3.201-1.544,2.774-3.055
		c-0.312-1.1-2.384-0.381-3.663-0.434c-1.905-0.079-3.818,0.024-5.729,0.005c-5.45-0.054-7.581-2.279-8.041-7.755
		C1680.558,438.602,1680.706,435.244,1680.913,431.446z"/>
	<path id="Fish" fill-rule="evenodd" clip-rule="evenodd" fill="#37B0C4" d="M1089.537,447.286c1.899-0.335,3.799-0.671,5.697-1.006
		c2.559,0.189,5.115,0.41,7.676,0.559c3.131,0.182,6.215,0.654,9.221,1.528c2.648,0.771,5.265,1.658,7.894,2.498
		c2.243,0.717,4.462,1.501,6.552,2.605c0.947,0.5,1.901,0.967,3,1.059c0.699,0.058,1.41,0.117,1.988,0.613
		c0.164,0.141,0.402,0.111,0.618,0.128c3.169,0.242,6.319,0.023,9.468-0.342c1.104-0.128,2.24-0.204,3.32,0.079
		c1.865,0.488,3.367,1.574,4.678,2.991c1.279,1.382,2.154,3.028,3.208,4.558c0.458,0.664,0.735,1.411,0.952,2.166
		c0.271,0.941,0.509,1.907,0.076,2.891c-0.268,0.604-0.771,1.018-1.126,1.551c-1.08,1.623-2.679,2.154-4.55,2.069
		c-0.359-0.017-0.723-0.124-1.186,0.002c2.223,1.463,4.467,2.173,7.014,1.327c2.756-0.916,5.52-1.81,8.279-2.714
		c2.889-0.946,5.754-2.022,8.891-1.472c0.187,1.055,0.373,2.109,0.559,3.165c-0.131,0.339-0.426,0.712-0.363,1.012
		c0.309,1.504-0.572,2.681-0.957,3.995c-0.188,0.643-0.368,1.281-0.705,1.85c-0.576,0.975-0.875,2.039-1.141,3.119
		c-0.113,0.465-0.273,0.883-0.616,1.244c-0.29,0.305-0.614,0.641-0.681,1.072c-0.262,1.689-0.603,3.369-0.757,5.076
		c-0.085,0.951,0.315,1.885,0.179,2.809c-0.176,1.189-0.133,2.395-0.289,3.564c-0.219,1.631-0.622,2.09-2.176,2.119
		c-0.434,0.01-0.852-0.076-1.265-0.193c-2.192-0.617-3.913-2.064-5.575-3.471c-2.951-2.498-5.834-5.094-8.33-8.078
		c-0.498-0.596-1.135-1.084-1.848-1.363c-2.727-1.066-5.574-1.596-8.664-1.715c0.799,0.234,1.444,0.434,2.096,0.611
		c0.617,0.168,1.078,0.525,1.35,1.098c0.295,0.623,0.689,1.184,1.068,1.752c0.145,0.215,0.338,0.426,0.317,0.688
		c-0.059,0.771,0.255,1.465,0.402,2.193c0.116,0.574,0.204,1.137-0.067,1.697c-0.109,0.227-0.018,0.453,0.062,0.682
		c0.224,0.643,0.563,1.244,0.644,1.941c0.135,1.191-0.088,1.77-0.989,2.072c-0.726,0.244-1.481,0.363-2.272,0.295
		c-2.1-0.178-3.711-1.201-5.166-2.666c-1.537-1.549-3.221-2.938-5.138-4.027c-2.124-1.207-4.179-2.527-5.99-4.178
		c-1.001-0.912-2.067-1.574-3.482-1.455c-0.081,0.008-0.179-0.008-0.249-0.049c-1.112-0.639-2.323-0.617-3.553-0.602
		c-1.419,0.02-2.794-0.375-4.192-0.557c-1.475-0.189-2.958-0.316-4.622-0.49c1.164,1.096,1.79,2.338,2.387,3.588
		c0.699,1.469,1.336,2.963,1.565,4.596c0.053,0.379,0.091,0.838-0.248,0.996c-0.615,0.287-0.546,0.783-0.58,1.279
		c-0.032,0.469-0.085,0.938-0.105,1.408c-0.019,0.434-0.222,0.641-0.655,0.717c-0.938,0.164-1.771-0.16-2.602-0.504
		c-1.541-0.637-2.867-1.613-4.127-2.682c-2.168-1.842-4.338-3.684-6.124-5.924c-1.536-1.926-2.851-4.008-4.233-6.043
		c-0.191-0.283-0.398-0.482-0.751-0.533c-2.065-0.299-4.024-1.012-6.027-1.555c-1.702-0.463-3.224-1.389-4.913-1.881
		c-1.498-0.438-2.796-1.229-4.037-2.176c-0.829-0.633-1.479-1.473-2.429-1.967c-0.852-0.442-1.679-0.949-2.46-1.506
		c-2.473-1.764-4.387-4.054-6.063-6.563c-0.463-0.696-0.746-1.552-1.66-1.871c-0.166-0.059-0.299-0.307-0.383-0.497
		c-0.559-1.275,0.207-2.68,1.581-2.976c0.489-0.106,0.862-0.019,1.206,0.364c0.311,0.344,0.613,0.725,1.199,0.956
		c-0.318-0.517-0.562-0.917-0.812-1.312c-0.122-0.192-0.179-0.369-0.058-0.596c0.305-0.573,0.617-1.104,1.275-1.373
		c0.49-0.2,0.93-0.526,1.392-0.794c1.241-0.717,2.435-1.537,3.734-2.124c1.869-0.845,3.848-1.429,5.804-2.051
		c1.424-0.453,2.862-0.86,4.303-1.263C1086.568,448.856,1087.97,447.859,1089.537,447.286z"/>
	<path id="Coral" fill-rule="evenodd" clip-rule="evenodd" fill="#1F5F66" d="M1237.915,797.42
		c-0.077-2.047-0.174-4.095-0.663-6.097c-0.635-2.6-0.119-4.948,1.477-7.083c0.467-0.623,0.979-0.744,1.643-0.334
		c1.078,0.665,1.635,1.708,1.759,2.895c0.298,2.856,1.052,5.638,1.315,8.497c0.109,1.185,0.152,2.369,0.201,3.556
		c0.073,1.759,0.209,3.523,0.826,5.195c0.434,1.177,1.139,1.277,2.015,0.361c0.663-0.693,1.147-1.47,1.423-2.403
		c0.952-3.241,1.783-6.519,2.898-9.711c0.509-1.456,0.978-2.931,2.064-4.079c0.523-0.554,0.963-1.211,1.721-1.515
		c0.935-0.374,1.95-0.036,2.426,0.854c0.439,0.822,0.453,1.669,0.2,2.562c-0.493,1.738-1.208,3.397-1.746,5.119
		c-0.446,1.428-0.86,2.863-1.202,4.32c-0.506,2.159-1.484,4.104-2.652,5.983c-1.563,2.518-3.022,5.101-4.074,7.887
		c-0.9,2.384-1.102,4.847-0.922,7.377c0.172,2.413,0.313,4.826,0.823,7.195c0.491,2.278,0.706,4.623,1.601,6.806
		c0.287,0.702,0.596,1.399,1.045,2.015c0.612,0.842,1.051,0.804,1.739,0.049c0.484-0.532,0.646-1.132,0.821-1.797
		c0.961-3.664,1.149-7.442,1.68-11.167c0.156-1.098-0.035-2.248-0.099-3.372c-0.118-2.089-0.135-4.178,0.003-6.265
		c0.057-0.848-0.105-1.675-0.121-2.514c-0.047-2.548,0.625-4.903,2.019-7.027c0.606-0.925,1.802-0.751,2.235,0.271
		c0.357,0.842,0.367,1.759,0.506,2.646c0.021,0.142,0.02,0.288,0.051,0.428c0.041,0.178,0.084,0.37,0.316,0.403
		c0.246,0.034,0.381-0.111,0.471-0.313c0.622-1.39,1.215-2.798,1.18-4.354c-0.031-1.349,0.545-2.427,1.396-3.377
		c0.904-1.01,2.999-0.878,3.8,0.241c0.632,0.882,0.979,1.851,0.83,2.998c-0.207,1.591-0.652,3.066-1.492,4.445
		c-1.638,2.688-2.821,5.591-3.926,8.528c-0.433,1.15-0.949,2.267-1.317,3.442c-0.417,1.328-0.378,2.672-0.146,4.015
		c0.141,0.811,0.688,0.963,1.332,0.434c0.245-0.202,0.402-0.461,0.559-0.726c0.396-0.67,0.754-1.366,1.287-1.943
		c0.381-0.411,0.49-0.925,0.623-1.444c0.294-1.149,0.722-2.269,0.82-3.463c0.045-0.527,0.021-1.062,0.063-1.589
		c0.048-0.607,0.29-1.155,0.647-1.639c0.569-0.769,1.313-0.761,1.854,0.025c0.446,0.648,0.647,1.411,0.937,2.134
		c0.173,0.433,0.139,1.113,0.742,1.156c0.632,0.045,0.888-0.593,1.164-1.048c0.724-1.188,1.349-2.442,2.203-3.543
		c1.256-1.616,2.37-3.344,3.793-4.827c0.267-0.278,0.578-0.519,0.889-0.75c0.5-0.371,1.037-0.45,1.614-0.159
		c0.597,0.303,0.933,0.758,0.983,1.443c0.125,1.732-0.633,3.133-1.615,4.461c-1.197,1.617-2.625,3.033-3.946,4.543
		c-1.55,1.77-3.128,3.508-4.533,5.405c-1.279,1.726-2.785,3.271-4.292,4.806c-2.355,2.397-4.317,5.087-5.918,8.041
		c-1.968,3.635-3.42,7.488-4.828,11.359c-0.301,0.825-0.465,1.698-0.729,2.538c-0.418,1.331-0.927,2.623-1.645,3.831
		c-1.07,1.801-1.383,3.842-1.756,5.854c-0.275,1.49-0.482,2.992-0.713,4.49c-0.04,0.262-0.059,0.53-0.059,0.796
		c0.004,1.487,0.802,1.999,2.163,1.382c1.018-0.461,1.667-1.306,2.225-2.223c0.64-1.05,1.255-2.114,1.859-3.185
		c0.914-1.616,2.036-3.06,3.368-4.359c2.929-2.855,4.447-6.403,5.118-10.398c0.396-2.361,0.04-4.645-0.311-6.956
		c-0.158-1.046-0.353-2.1-0.214-3.175c0.129-0.999,0.523-1.839,1.287-2.507c0.768-0.67,1.797-0.521,2.285,0.377
		c0.244,0.447,0.414,0.936,0.618,1.405c0.089,0.204,0.146,0.452,0.419,0.48c0.295,0.03,0.434-0.201,0.561-0.409
		c0.721-1.191,1.308-2.463,2.135-3.591c0.362-0.495,0.748-0.975,1.141-1.448c0.461-0.559,1.051-0.848,1.787-0.734
		c0.753,0.116,0.981,0.714,1.197,1.333c0.307,0.883,0.174,1.738-0.116,2.588c-0.563,1.654-1.384,3.194-2.149,4.758
		c-1.226,2.502-2.482,4.989-3.436,7.615c-0.223,0.612-0.308,1.229-0.267,1.869c0.011,0.158,0.007,0.353,0.214,0.397
		c0.172,0.036,0.24-0.128,0.331-0.232c0.558-0.642,0.913-1.409,1.302-2.15c1.085-2.075,2.529-3.928,3.664-5.969
		c0.858-1.546,1.844-3.003,2.897-4.416c0.719-0.964,1.425-1.113,2.526-0.636c0.549,0.237,0.806,0.684,0.918,1.208
		c0.318,1.492,0.025,2.893-0.737,4.198c-1.023,1.752-2.11,3.466-3.226,5.161c-0.664,1.01-1.068,2.172-1.81,3.137
		c-1.322,1.723-2.682,3.408-4.331,4.842c-1.141,0.991-2.424,1.819-3.401,2.992c-0.274,0.329-0.526,0.679-0.783,1.023
		c-0.106,0.143-0.147,0.305,0.007,0.44c0.129,0.111,0.273,0.062,0.399-0.019c0.325-0.209,0.671-0.395,0.964-0.642
		c1.369-1.157,3.019-1.62,4.729-1.914c1.041-0.178,2.195,0.337,2.615,1.124c0.542,1.019,0.426,2.013-0.334,2.853
		c-1.361,1.501-2.916,2.786-4.846,3.477c-3.494,1.252-6.943,2.594-10.274,4.244c-1.702,0.843-3.182,1.935-4.372,3.407
		c-1.184,1.466-2.561,2.7-4.18,3.672c-1.191,0.716-2.313,1.561-3.543,2.199c-2.791,1.448-5.547,1.078-8.23-0.375
		c-1.848-1.001-3.533-2.228-5.047-3.686c-2.322-2.235-5.002-3.747-8.25-4.143c-0.671-0.082-1.312-0.31-1.951-0.535
		c-1.555-0.549-3.182-0.94-4.801-0.984c-1.896-0.051-3.808,0.021-5.711,0.113c-2.336,0.114-4.631,0.58-6.959,0.77
		c-0.924,0.075-1.844,0.036-2.756-0.114c-0.797-0.132-1.195-0.584-1.195-1.394c0.002-1.089,0.436-1.951,1.453-2.44
		c0.684-0.33,1.379-0.633,2.066-0.953c0.201-0.094,0.444-0.173,0.471-0.437c0.029-0.303-0.232-0.408-0.437-0.536
		c-1.211-0.765-2.511-1.394-3.563-2.395c-0.573-0.543-0.885-1.229-1.068-1.97c-0.164-0.664,0.307-1.25,1.041-1.416
		c0.991-0.223,1.945-0.109,2.902,0.213c3.222,1.087,6.443,2.176,9.68,3.219c1.911,0.616,3.889,0.992,5.839,1.471
		c0.393,0.097,0.763,0.05,1.014-0.254c0.267-0.322,0.144-0.703-0.031-1.041c-0.269-0.516-0.675-0.924-1.072-1.337
		c-1.323-1.374-2.628-2.778-4.266-3.784c-2.003-1.231-3.919-2.61-5.96-3.77c-2.084-1.186-3.868-2.696-5.519-4.397
		c-0.915-0.943-2.041-1.526-3.285-1.837c-1.673-0.418-3.274-1.061-4.948-1.468c-1.313-0.319-2.627-0.631-3.973-0.788
		c-0.982-0.114-1.941-0.354-2.822-0.815c-0.997-0.521-1.985-1.063-2.953-1.639c-0.681-0.404-1.191-0.993-1.559-1.702
		c-0.617-1.193-0.209-2.207,1.09-2.584c1.546-0.449,3.113-0.418,4.688-0.142c1.158,0.204,2.215,0.741,3.363,0.971
		c0.303,0.06,0.617,0.168,0.855-0.125c0.271-0.332,0.047-0.647-0.123-0.902c-0.976-1.466-2.047-2.861-3.166-4.221
		c-0.832-1.01-1.842-1.87-2.523-3.003c-0.521-0.863-0.821-1.789-0.676-2.81c0.12-0.832,0.499-1.179,1.348-1.234
		c0.842-0.055,1.631,0.167,2.35,0.595c2.449,1.457,4.621,3.227,6.373,5.506c1.197,1.557,2.573,2.979,3.73,4.562
		c1.125,1.537,2.189,3.117,3.359,4.622c0.283,0.365,0.598,0.907,1.096,0.693c0.555-0.238,0.348-0.849,0.238-1.321
		c-0.479-2.076-0.968-4.149-1.462-6.223c-0.148-0.623-0.221-1.24-0.151-1.885c0.133-1.223,0.941-1.871,2.156-1.664
		c1.717,0.292,2.711,1.431,3.351,2.942c0.532,1.256,0.687,2.613,0.938,3.938c0.461,2.432,1.219,4.766,2.228,7.013
		c0.666,1.485,1.682,2.685,2.979,3.741c2.157,1.758,4.08,3.785,5.873,5.928c2.195,2.625,4.355,5.275,6.34,8.064
		c0.866,1.219,1.622,2.517,2.605,3.652c1.222,1.409,2.544,2.723,3.858,4.045c0.364,0.367,0.809,0.637,1.322,0.744
		c0.295,0.062,0.653,0.149,0.861-0.137c0.209-0.289,0.114-0.627-0.062-0.928c-0.651-1.114-1.267-2.252-1.96-3.339
		c-1.498-2.35-3.076-4.648-4.543-7.017c-0.895-1.442-1.537-3.032-2.457-4.468c-1.813-2.827-3.723-5.593-5.377-8.521
		c-1.652-2.924-3.438-5.78-4.792-8.86c-0.847-1.924-1.186-3.998-1.374-6.091c-0.176-1.957-0.729-3.823-1.506-5.613
		c-0.451-1.041-1.406-1.688-2.251-2.398c-1.976-1.662-4.196-2.903-6.558-3.947c-2.133-0.945-4.221-2.01-5.92-3.679
		c-0.969-0.952-1.07-1.528-0.467-2.567c0.338-0.584,0.873-0.771,1.49-0.823c0.592-0.052,1.186-0.083,1.775-0.144
		c0.605-0.062,0.707-0.283,0.387-0.801c-0.604-0.979-1.644-1.46-2.49-2.158c-1.184-0.976-2.466-1.825-3.549-2.932
		c-0.951-0.969-1.287-2.11-1.205-3.418c0.037-0.593,0.294-1.054,0.838-1.34c0.744-0.393,1.521-0.58,2.368-0.46
		c1.813,0.257,3.333,1.034,4.55,2.429c0.6,0.689,1.286,1.301,1.908,1.976c1.098,1.188,1.887,2.569,2.705,3.941
		c0.461,0.773,0.934,1.511,1.649,2.135c0.651,0.567,1.032,1.448,1.519,2.201c0.317,0.493,0.813,0.738,1.307,0.984
		c0.332,0.165,0.5,0.033,0.5-0.335c0-0.288-0.01-0.573-0.113-0.848c-0.756-1.989-0.957-4.05-0.801-6.159
		c0.047-0.634,0.037-1.271,0.067-1.905c0.042-0.867,0.327-1.637,0.927-2.285c1.102-1.193,2.434-1.123,3.459,0.146
		c0.972,1.202,1.25,2.626,1.289,4.088c0.12,4.442,0.961,8.744,2.344,12.954c0.629,1.916,1.014,3.891,1.252,5.884
		c0.301,2.533,1.205,4.934,1.531,7.457c0.195,1.504,0.436,3.002,0.959,4.437c0.063,0.173,0.115,0.352,0.195,0.518
		c0.237,0.491,0.581,0.548,0.955,0.147c0.518-0.556,0.779-1.24,0.956-1.968c0.69-2.847,1.378-5.695,2.084-8.538
		c0.528-2.13,1.239-4.205,1.899-6.296c0.221-0.694,0.652-1.217,1.324-1.538c0.906-0.434,1.674-0.03,1.891,0.946
		c0.392,1.767,0.061,3.48-0.425,5.152c-1.18,4.065-1.737,8.255-2.603,12.381c-0.539,2.567,0.068,4.771,1.035,7.067
		c1.403,3.33,3.32,6.404,4.691,9.743c1.045,2.542,2.229,5.019,3.599,7.401c0.333,0.58,0.621,1.204,1.165,1.638
		c0.533,0.424,1.024,0.343,1.404-0.227c0.45-0.673,0.555-1.458,0.637-2.227c0.321-2.974,0.849-5.918,1.23-8.883
		c0.18-1.397-0.115-2.73-0.52-4.051c-0.445-1.451-0.958-2.877-1.576-4.265c-1.056-2.374-1.498-4.93-2.211-7.407
		c-0.857-2.978-0.859-6.082-1.576-9.065c-0.686-2.857-0.4-5.751-0.478-8.632c-0.093-3.459-0.781-6.795-2.2-9.954
		c-0.747-1.661-1.883-3.051-3.264-4.254c-0.471-0.409-0.916-0.87-1.337-1.337c-0.642-0.711-1.427-1.185-2.222-1.694
		c-1.917-1.229-3.912-2.375-5.152-4.433c-0.781-1.295-1.74-2.472-2.165-3.97c-0.245-0.866,0.005-1.54,0.563-2.137
		c0.563-0.601,1.27-0.764,2.083-0.577c1.349,0.309,2.373,1.146,3.245,2.121c1.759,1.966,3.553,3.903,5.217,5.954
		c0.616,0.76,1.172,1.591,2.107,2.026c0.678,0.315,1.002,0.128,1.031-0.625C1237.927,798.117,1237.915,797.769,1237.915,797.42z"/>
	<path id="Corel" fill-rule="evenodd" clip-rule="evenodd" fill="#2C2C2C" d="M1607.8,881.26c1.17-0.291,1.597,0.49,1.809,1.375
		c0.217,0.907,0.504,1.763,1,2.551c0.16,0.255,0.181,0.68,0.631,0.574c0.354-0.086,0.479-0.416,0.538-0.732
		c0.191-1.022,0.36-2.048,0.534-3.071c0.253-1.499,0.486-3,0.758-4.496c0.34-1.87,1.197-3.463,2.627-4.734
		c0.435-0.386,0.884-0.711,1.506-0.459c0.665,0.27,0.821,0.85,0.817,1.473c-0.01,1.165-0.218,2.305-0.553,3.422
		c-0.157,0.521-0.513,1.193,0.144,1.491c0.62,0.284,0.854-0.429,1.085-0.863c1.096-2.064,2.907-3.494,4.521-5.09
		c0.734-0.727,2.489-0.768,3.285-0.235c0.758,0.506,1.13,1.841,0.79,2.948c-0.271,0.89-0.737,1.675-1.319,2.404
		c-1.407,1.758-2.982,3.349-4.788,4.688c-5.019,3.727-8.573,8.636-11.662,13.989c-2.01,3.48-3.221,7.316-5.174,10.811
		c-0.496,0.89-0.6,1.907-0.632,2.908c-0.037,1.201,0.531,1.664,1.738,1.492c1.211-0.173,2.208-0.778,2.932-1.721
		c3.132-4.083,5.61-8.384,4.665-13.869c-0.282-1.636-0.137-3.272,0.974-4.679c0.771-0.978,1.421-1.023,1.998,0.077
		c0.476,0.911,0.729,1.937,1.074,2.914c0.094,0.264,0.143,0.544,0.244,0.805c0.219,0.567,0.487,1.213,1.133,1.283
		c0.677,0.074,0.86-0.658,1.073-1.126c0.851-1.882,1.346-3.847,1.065-5.94c-0.28-2.102,0.299-3.869,1.979-5.233
		c1.083-0.878,2.106-0.675,2.729,0.585c0.62,1.254,0.518,2.556,0.227,3.869c-0.108,0.493-0.387,1.102,0.155,1.435
		c0.56,0.343,0.939-0.239,1.331-0.545c0.849-0.663,1.641-1.406,2.526-2.017c1.083-0.747,2.411-0.675,3.358,0.058
		c0.956,0.74,1.293,1.948,0.82,3.255c-0.554,1.534-1.34,2.79-2.999,3.512c-2.045,0.888-3.939,2.121-5.915,3.172
		c-2.451,1.304-4.11,3.379-5.625,5.617c-0.896,1.325-1.902,2.576-2.762,3.922c-0.373,0.587-0.963,1.327-0.255,2.043
		c0.412,0.417,1.803-0.146,2.269-0.9c0.29-0.472,0.472-1.013,0.678-1.532c0.341-0.854,0.662-1.716,0.988-2.576
		c0.331-0.879,0.954-1.462,1.821-1.793c1.26-0.48,2.252,0.052,2.502,1.386c0.163,0.874,0.137,1.769-0.143,2.612
		c-1.206,3.634-3.359,6.627-6.385,8.94c-0.831,0.635-1.955,0.884-2.942,1.317c-1.982,0.87-3.85,1.974-5.651,3.149
		c-2.926,1.909-4.475,4.85-5.399,8.109c-0.359,1.27-0.912,2.135-2.197,2.576c-1.244,0.427-2.466,0.951-3.639,1.546
		c-1.545,0.783-2.924,0.576-4.256-0.435c-2.393-1.813-4.814-3.582-7.565-4.83c-4.687-2.127-9.446-3.952-14.745-3.631
		c-1.899,0.115-3.397,0.903-4.427,2.468c-0.859,1.305-1.801,2.54-2.773,3.757c-2.093,2.613-5.677,3.384-8.649,1.851
		c-1.247-0.644-1.74-1.485-1.565-2.678c0.226-1.553,1.065-2.564,2.336-2.85c2.328-0.523,4.255-1.865,6.57-3.009
		c-1.484-0.653-2.697-0.613-3.926-0.41c-3.329,0.548-6.665,0.9-10.013,0.191c-2.34-0.495-4.546-1.34-6.265-3.077
		c-1.164-1.177-1.968-2.544-1.357-4.319c0.652-1.896,1.694-2.244,3.198-0.928c1.931,1.69,4.174,2.636,6.649,3.115
		c0.46,0.089,0.926,0.262,1.479,0.039c-0.073-0.593-0.566-0.83-0.964-1.101c-1.19-0.809-2.403-1.586-3.611-2.369
		c-1.023-0.664-1.873-1.495-2.487-2.553c-0.711-1.229-0.683-2.33,0.059-2.974c0.881-0.764,2.514-0.843,3.467-0.092
		c0.528,0.417,0.998,0.924,1.431,1.442c1.208,1.441,2.423,2.878,3.559,4.374c1.805,2.378,4.158,3.463,7.137,3.494
		c4.761,0.05,9.501,0.472,14.233,0.987c1.514,0.165,3.013,0.393,4.497,0.729c0.609,0.139,1.226,0.344,2.131,0.115
		c-1.376-1.135-2.605-2.177-3.863-3.183c-3.651-2.924-7.249-5.917-11.584-7.843c-3.76-1.669-7.621-2.874-11.766-3.062
		c-2.196-0.1-4.396-0.231-6.576-0.49c-3.26-0.389-6.097-1.602-7.944-4.527c-0.613-0.975-0.765-1.996-0.512-3.102
		c0.331-1.441,1.388-1.927,2.709-1.235c0.801,0.42,1.424,1.049,1.918,1.78c1.744,2.583,4.182,2.945,6.989,2.306
		c0.859-0.196,0.877-0.57,0.376-1.126c-0.647-0.718-1.448-1.255-2.233-1.808c-2.392-1.688-4.46-3.645-5.464-6.5
		c-0.53-1.509-0.583-3.056-0.342-4.614c0.14-0.901,0.672-1.531,1.549-1.82c0.806-0.267,1.384,0.168,1.914,0.69
		c0.513,0.504,1.033,0.997,1.416,1.621c2.363,3.855,5.473,7.076,8.719,10.172c0.979,0.934,2.124,1.66,3.786,2.231
		c-0.971-1.6-1.765-2.904-2.554-4.212c-0.721-1.193-0.768-2.408-0.123-3.653c0.611-1.183,1.457-1.499,2.678-0.933
		c1.098,0.51,1.859,1.36,2.351,2.46c0.867,1.939,2.011,3.722,3.085,5.549c1.569,2.668,4.023,4.29,6.502,5.908
		c2.842,1.854,5.257,4.155,7.4,6.774c1.958,2.391,4.275,4.427,6.595,6.452c0.2,0.175,0.392,0.414,0.791,0.365
		c0.007-0.527-0.404-0.821-0.672-1.171c-2.755-3.592-5.359-7.275-7.268-11.407c-0.647-1.402-1.689-2.522-2.79-3.574
		c-2.832-2.709-5.662-5.423-8.539-8.084c-1.709-1.581-3.738-2.775-5.779-3.807c-4.321-2.182-8.438-4.731-12.79-6.853
		c-2.618-1.276-5.327-2.107-8.23-2.439c-2.53-0.291-5.1-0.473-7.505-1.467c-1.258-0.521-1.963-1.482-2.297-2.74
		c-0.331-1.24,0.13-1.724,1.406-1.583c0.865,0.095,1.691,0.474,2.728,0.349c-0.434-0.724-1.104-1.092-1.61-1.613
		c-0.417-0.428-0.89-0.816-1.234-1.297c-0.548-0.765-0.314-1.406,0.568-1.671c1.96-0.586,3.814-0.748,5.348,1.098
		c0.986,1.188,2.102,2.29,3.477,3.202c0.271-0.561,0.015-0.979-0.181-1.384c-0.195-0.402-0.362-0.807-0.358-1.257
		c0.011-1.137,0.763-1.586,1.762-1.046c1.294,0.699,2.322,1.718,3.152,2.903c2.777,3.96,6.985,5.84,11.164,7.771
		c0.142,0.065,0.308,0.111,0.464,0.114c0.375,0.004,0.845,0.314,1.099-0.132c0.205-0.363-0.166-0.675-0.366-0.948
		c-1.617-2.194-3.327-4.316-5.553-5.927c-2.72-1.967-5.471-3.895-8.259-5.764c-1.32-0.885-2.955-0.945-4.452-1.355
		c-2.588-0.709-5.172-1.464-7.549-2.714c-1.943-1.022-3.615-2.362-3.95-4.797c-0.256-1.861,0.465-2.519,2.238-1.818
		c1.413,0.557,2.771,1.249,4.168,1.847c0.493,0.211,0.973,0.563,1.575,0.409c0.125-0.413-0.189-0.604-0.389-0.825
		c-1.578-1.733-2.694-3.76-3.757-5.827c-0.805-1.564-0.933-3.207-0.706-4.904c0.183-1.361,1.317-2.48,2.595-2.599
		c1.056-0.097,1.884,0.565,2.423,1.938c0.425,1.085,0.777,2.199,0.852,3.36c0.165,2.543,1.559,4.457,3.136,6.308
		c0.071-1.431-0.539-2.681-1.191-3.853c-1.075-1.933-1.382-3.979-1.313-6.13c0.042-1.353,1.19-2.983,2.44-3.429
		c0.813-0.288,1.498,0.021,2.086,0.561c0.916,0.842,1.336,1.959,1.22,3.143c-0.375,3.822,0.748,7.359,1.912,10.896
		c0.311,0.948,0.453,1.953,0.964,2.832c0.237,0.406,0.379,0.886,1.012,1.194c0.063-2.02-0.441-3.838-0.995-5.646
		c-0.688-2.244-1.842-4.36-1.86-6.788c-0.013-1.551,0.111-3.06,1.382-4.178c1.11-0.975,2.118-0.857,2.885,0.412
		c1.16,1.92,1.768,4.042,1.742,6.277c-0.029,2.466,0.386,4.85,0.927,7.234c0.514,2.262,0.938,4.543,1.401,6.817
		c0.245,1.193,0.66,2.309,1.523,3.205c0.207,0.215,0.387,0.629,0.751,0.433c0.301-0.163,0.246-0.573,0.202-0.879
		c-0.074-0.514-0.207-1.019-0.309-1.528c-0.225-1.128,0.318-2.788,0.981-3.006c0.674-0.222,1.847,0.686,2.387,1.872
		c0.165,0.36,0.393,0.749,0.388,1.122c-0.047,3.131,1.662,5.548,3.273,7.967c2.954,4.428,6.576,8.355,9.665,12.688
		c0.115,0.161,0.261,0.31,0.419,0.427c0.283,0.205,0.59,0.536,0.956,0.304c0.362-0.229,0.241-0.655,0.138-0.992
		c-1.535-4.979-2.251-10.153-3.592-15.172c-1.756-6.565-5.331-11.987-10.634-16.293c-1.852-1.504-3.754-3.009-5.018-5.112
		c-0.145-0.239-0.32-0.469-0.419-0.726c-0.232-0.605-0.455-1.256,0.071-1.804c0.529-0.551,1.188-0.382,1.787-0.113
		c1.146,0.514,2.134,1.264,2.979,2.188c1.478,1.614,3.229,2.854,5.176,3.832c0.208,0.103,0.434,0.325,0.658,0.168
		c0.267-0.187,0.191-0.506,0.109-0.775c-0.903-2.996-1.763-5.937-4.813-7.685c-2.25-1.291-4.15-3.136-5.977-4.983
		c-4.1-4.144-8.723-7.603-13.532-10.869c-3.799-2.581-6.793-5.954-8.463-10.333c-0.644-1.69-1.112-3.435-0.758-5.274
		c0.142-0.74,0.25-1.628,1.07-1.88c0.911-0.279,1.502,0.488,1.962,1.106c1.177,1.582,1.904,3.418,2.667,5.219
		c0.902,2.129,2.163,4.005,3.771,5.652c0.252,0.258,0.542,0.792,0.95,0.443c0.326-0.277,0.023-0.751-0.164-1.096
		c-0.855-1.582-1.729-3.156-2.593-4.732c-0.988-1.801-1.689-3.701-2.076-5.726c-0.328-1.724-0.807-3.42-1.108-5.147
		c-0.244-1.389,0.171-2.711,0.844-3.92c0.488-0.876,1.265-1.563,2.309-1.398c0.996,0.155,1.103,1.144,1.269,1.971
		c0.298,1.489,0.619,2.976,0.874,4.473c0.157,0.925,0.505,1.454,1.567,1.302c0.667-0.098,1.087,0.326,1.38,0.933
		c0.687,1.42,0.808,2.941,0.69,4.455c-0.351,4.551,1.332,8.271,4.458,11.453c0.557,0.566,1.116,1.071,1.978,0.833
		c0.892-0.246,1.175-1.019,1.418-1.79c0.159-0.507,0.105-1.032-0.016-1.544c-0.277-1.167-0.484-2.359-0.872-3.49
		c-0.451-1.312-0.22-2.513,0.251-3.733c0.252-0.652,0.729-0.896,1.405-0.887c1.555,0.021,2.858,0.977,3.44,2.703
		c0.672,1.991,1,4.04,0.576,6.142c-0.27,1.339-0.308,2.696-0.421,4.051c-0.209,2.489,1.055,4.271,2.671,5.901
		c0.393,0.395,0.921,0.807,1.488,0.555c0.522-0.231,0.308-0.858,0.291-1.311c-0.114-3.158-0.137-6.306,0.236-9.457
		c0.2-1.691-0.275-3.333-0.924-4.904c-0.736-1.783-1.459-3.576-1.01-5.565c0.22-0.976,0.424-2.063,1.591-2.336
		c1.174-0.273,1.675,0.688,2.229,1.472c0.066,0.094,0.156,0.17,0.403,0.432c0.086-0.681,0.146-1.207,0.219-1.731
		c0.188-1.339,0.578-2.588,1.73-3.436c1.089-0.801,1.935-0.604,2.509,0.612c0.596,1.262,0.716,2.604,0.592,3.985
		c-0.222,2.484-0.823,4.896-1.568,7.257c-1.821,5.777-2.048,11.707-1.85,17.685c0.048,1.454,0.938,2.614,1.533,3.872
		c0.272,0.576,0.548,1.176,0.944,1.667c2.992,3.705,3.732,8.081,4.076,12.667c0.295,3.946,1.174,7.826,2.191,11.656
		c0.214,0.804,0.416,1.946,1.487,1.939c1.044-0.008,1.07-1.171,1.326-1.917c0.827-2.42,1.592-4.857,2.164-7.359
		c0.833-3.647,0.526-7.159-1.008-10.547c-2.214-4.888-3.986-9.938-5.616-15.04c-0.666-2.087-0.412-4.195,0.007-6.286
		c0.125-0.625,0.561-1.055,1.238-1.146c0.715-0.099,1.255,0.177,1.599,0.806c0.346,0.63,0.673,1.276,0.74,2.008
		c0.405,4.372,2.065,8.358,3.809,12.313c0.288,0.654,0.692,1.696,1.509,1.369c0.661-0.266,0.131-1.258-0.064-1.847
		c-1.231-3.688-2.191-7.44-2.865-11.265c-0.34-1.926-0.469-3.884-1.261-5.719c-0.605-1.406-1.377-2.702-2.219-3.969
		c-0.916-1.378-1.715-2.796-1.7-4.53c0.007-0.882-0.168-1.802,0.931-2.22c1.209-0.46,2.543-0.199,3.288,0.722
		c0.296,0.365,0.511,0.81,0.705,1.243c0.188,0.421,0.302,0.875,0.483,1.418c0.446-0.715,0.23-1.332,0.119-1.943
		c-0.257-1.411-0.762-2.786-0.687-4.249c0.031-0.596,0.063-1.208,0.224-1.776c0.225-0.798,0.442-1.726,1.424-1.905
		c0.939-0.173,1.56,0.512,2.124,1.138c0.944,1.045,1.1,2.375,1.181,3.696c0.156,2.571-0.173,5.108-0.604,7.637
		c-0.589,3.452-0.473,6.855,0.897,10.131c0.314,0.753,0.598,1.819,1.515,1.829c1.004,0.011,1.233-1.083,1.578-1.886
		c1.621-3.771,1.643-7.684,1.126-11.669c-0.437-3.367-1.27-6.676-1.478-10.077c-0.091-1.5-0.038-2.959,0.974-4.213
		c0.832-1.031,1.381-1.125,2.329-0.1c1.235,1.334,1.813,2.998,1.962,4.795c0.108,1.313,0.139,2.634,0.208,3.95
		c0.033,0.645,0.051,1.529,0.694,1.642c0.765,0.132,0.825-0.82,1.059-1.378c0.546-1.307,0.42-2.679,0.234-4.025
		c-0.452-3.269,1.078-5.896,2.694-8.49c0.367-0.591,1.031-0.79,1.701-0.498c1.008,0.441,1.59,1.281,1.577,2.353
		c-0.017,1.555-0.085,3.126-0.324,4.659c-0.551,3.546-0.845,7.179-3.019,10.256c-0.601,0.852-1.175,1.691-2.076,2.288
		c-1.4,0.926-1.742,2.436-1.582,3.923c0.492,4.574-1.054,8.577-3.239,12.418c-0.712,1.25-1.47,2.472-2.077,3.781
		c-0.534,1.15-0.774,2.354-0.717,3.611c0.14,3.066-0.352,6.051-1.04,9.024c-0.667,2.881-1.23,5.788-1.827,8.686
		c-0.053,0.253-0.217,0.525,0.056,0.907c0.772-1.559,1.532-3.043,2.249-4.547c1.857-3.901,3.676-7.819,4.974-11.953
		c0.529-1.688,1.329-3.259,2.176-4.8c1.241-2.256,1.949-4.627,1.869-7.223c-0.024-0.837,0.043-1.679,0.115-2.516
		c0.037-0.432,0.101-0.892,0.285-1.276c0.434-0.9,1.115-1.663,2.151-1.704c1.001-0.039,1.105,1.002,1.485,1.665
		c0.136,0.239,0.215,0.516,0.299,0.783c0.158,0.511-0.125,1.396,0.852,1.249c0.826-0.124,1.39-0.716,1.363-1.581
		c-0.033-1.035-0.206-2.065-0.335-3.095c-0.093-0.75-0.34-1.505,0.587-1.981c0.937-0.48,1.715-0.395,2.517,0.318
		c2.037,1.813,2.545,4.083,2.048,6.646c-0.457,2.363-1.484,4.521-3.019,6.333c-3.261,3.851-5.222,8.396-7.277,12.907
		c-1.828,4.012-3.427,8.133-6.347,11.575c-0.765,0.901-1.714,1.616-2.38,2.622c-0.701,1.062-1.584,2.008-2.426,2.971
		c-2.628,3.006-3.601,6.587-3.816,10.485c-0.382,6.905,1.71,13.145,4.991,19.077c0.385,0.695,0.856,1.351,1.354,1.973
		c1.084,1.359,1.814,1.301,2.499-0.32c1.102-2.607,1.447-5.31,0.559-8.076c-1.675-5.215-3.688-10.307-5.638-15.422
		c-0.531-1.396-0.534-2.834-0.349-4.258c0.2-1.534,2.054-2.138,3.246-1.063c1.267,1.142,1.838,2.673,2.12,4.327
		c0.114,0.666,0.237,1.335,0.407,1.99c0.069,0.271,0.304,0.502,0.609,0.509c0.34,0.008,0.464-0.294,0.539-0.56
		c0.129-0.459,0.257-0.927,0.31-1.4c0.265-2.397,0.251-4.789-0.306-7.152c-0.176-0.753-0.261-1.507-0.031-2.251
		c0.293-0.945,0.769-1.974,1.791-2.039c1.091-0.07,2.112,0.566,2.576,1.661c0.753,1.779,1.15,3.612,0.996,5.599
		c-0.459,5.897-0.905,11.8-0.549,17.724c0.012,0.2-0.009,0.406,0.033,0.598c0.117,0.53,0.311,1.046,0.971,1.023
		c0.595-0.021,0.768-0.493,0.846-0.998c0.189-1.225,0.44-2.444,0.548-3.677c0.358-4.083,1.224-8.045,2.446-11.959
		c1.454-4.653,1.17-9.376,0.339-14.125c-0.545-3.113-1.124-6.214-1.834-9.293c-0.387-1.678,0.058-3.163,1.139-4.478
		c0.606-0.736,1.233-0.762,1.942-0.115c1.189,1.085,1.627,2.545,2.007,4.016c0.439,1.704,0.785,3.431,1.192,5.144
		c0.078,0.328,0.014,0.855,0.428,0.904c0.471,0.056,0.599-0.478,0.739-0.823c1.078-2.662,1.683-5.432,1.557-8.31
		c-0.167-3.81,0.08-7.589,0.611-11.357c0.541-3.842,0.01-7.574-1.226-11.225c-0.425-1.256-0.729-2.537-0.748-3.871
		c-0.028-1.858,1.03-2.729,2.856-2.32c1.797,0.402,2.953,1.455,3.405,3.298c0.97,3.94,1.161,7.885,0.391,11.889
		c-0.461,2.397-0.737,4.825-0.194,7.263c0.061,0.273,0.097,0.555,0.186,0.818c0.159,0.479,0.238,1.157,0.913,1.061
		c0.609-0.086,0.705-0.731,0.698-1.247c-0.015-0.997-0.089-1.993-0.183-2.985c-0.048-0.516-0.203-1.019-0.289-1.532
		c-0.255-1.532,0.494-3.023,1.837-3.729c0.423-0.223,0.782-0.161,1.076,0.172c0.182,0.204,0.31,0.464,0.428,0.715
		c0.273,0.584,0.175,1.683,0.975,1.577c0.865-0.113,0.654-1.221,0.794-1.923c0.091-0.458,0.041-0.954-0.008-1.426
		c-0.165-1.581,0.351-2.49,1.753-3.014c1.182-0.441,2.245-0.083,3.021,1.26c1.125,1.946,1.479,4.098,0.807,6.249
		c-1.328,4.237-3.298,8.123-6.419,11.394c-2.433,2.551-4.436,5.457-6.274,8.467c-0.67,1.097-0.925,2.281-0.714,3.561
		c0.09,0.536,0.192,0.704,0.849,0.476c0.968-0.338,1.427-0.971,1.645-1.868c0.285-1.165,0.528-2.34,0.795-3.509
		c0.125-0.553,0.328-1.074,0.69-1.518c0.858-1.049,2.044-1.02,2.789,0.11c1.378,2.088,1.212,4.238,0.131,6.377
		c-0.715,1.416-1.796,2.542-3.025,3.525c-1.896,1.515-3.44,3.324-4.716,5.388c-1.726,2.794-3.339,5.644-4.7,8.633
		c-0.113,0.251-0.171,0.525-0.255,0.79c-0.218,0.331-0.504,0.636-0.644,0.996c-1.253,3.241-2.368,6.528-3.175,9.91
		c-0.221,0.931-0.289,1.896-0.023,2.848c0.118,0.424,0.197,0.925,0.718,1.001c0.571,0.082,0.81-0.382,1.055-0.813
		c1.039-1.829,1.371-3.801,1.31-5.881C1606.971,886.612,1607.09,883.906,1607.8,881.26z"/>
	<path id="Shark" fill-rule="evenodd" clip-rule="evenodd" fill="#3391A0" d="M1259.623,598.979
		c2.121,2.334,2.107,2.757,0.088,4.386c-3.574,2.882-7.832,4.475-12.012,6.176c-5.859,2.384-11.797,4.563-18.016,5.849
		c-1.777,0.366-2.902,1.068-3.131,3.183c-0.27,2.481-1.662,4.547-3.701,6.076c-1.689,1.265-2.086,1.132-2.693-0.831
		c-0.244-0.787-0.479-1.577-0.729-2.399c-0.783,0.224-0.848,0.939-1.115,1.444c-2.852,5.4-7.211,9.486-11.674,13.484
		c-0.357,0.32-0.787,0.575-1.217,0.797c-0.873,0.455-1.828,0.938-2.709,0.159c-0.773-0.684-0.305-1.564-0.033-2.333
		c1.07-3.037,1.248-6.265,2.023-9.366c0.176-0.707,0.023-1.521-0.088-2.271c-0.215-1.47-0.973-2.125-2.59-1.924
		c-3.723,0.463-7.477,0.667-11.191,1.17c-9.023,1.222-18.035,0.572-27.053,0.012c-2.426-0.151-4.855-0.286-7.277-0.495
		c-1.229-0.105-1.98,0.342-2.391,1.502c-0.369,1.052-0.822,2.083-1.623,2.887c-1.178,1.18-2.391,0.972-3.141-0.526
		c-1.646-3.295-4.328-4.945-7.984-5.009c-10.207-0.178-20.424,0.188-30.629-0.354c-1.352-0.072-1.803,0.733-2.328,1.665
		c-2.637,4.669-5.355,9.293-9.199,13.1c-2.521,2.5-5.203,4.839-8.633,6.064c-0.763,0.272-1.666,0.718-2.342-0.021
		c-0.666-0.726-0.18-1.597,0.129-2.354c1.363-3.348,2.678-6.708,3.74-10.171c1.346-4.39,1.434-8.705-0.074-13.098
		c-1.904-5.555-4.046-10.944-8.037-15.413c-1.713-1.919-3.143-4.072-4.461-6.286c-0.307-0.515-0.92-1.027-0.498-1.68
		c0.486-0.756,1.276-0.4,1.906-0.216c5.267,1.547,10.051,3.991,14.271,7.551c4.379,3.694,8.232,7.893,11.813,12.33
		c1.527,1.891,3.123,2.194,5.291,1.533c3.521-1.072,7.076-2.032,10.639-2.959c1.086-0.282,1.918-0.696,2.369-1.781
		c0.594-1.421,1.617-2.08,3.16-1.482c1.387,0.538,2.596-0.134,3.838-0.507c14.639-4.4,29.273-8.801,43.898-13.238
		c3.24-0.982,5.672-4.468,5.33-7.815c-0.467-4.553-0.686-9.156-2.197-13.549c-0.713-2.068,0.68-1.668,1.785-1.386
		c5.533,1.419,10.264,4.187,14.084,8.47c1.574,1.766,3.24,3.451,4.744,5.271c1.025,1.24,2.123,1.742,3.777,1.608
		c12.605-1.018,25.229-1.704,37.883-1.327c10.227,0.305,20.434,0.824,30.289,3.943c1.178,0.373,2.949,0.321,3.154,1.914
		c0.197,1.537-1.275,2.379-2.365,3.2C1268.947,596.8,1265.014,599.261,1259.623,598.979z"/>
	<path id="Fish_1_" fill-rule="evenodd" clip-rule="evenodd" fill="#1F5F66" d="M1023.501,836.449
		c-3.73,0.666-7.128-0.075-10.487-1.123c-1.053-0.328-1.944,0.155-2.806,0.675c-1.833,1.103-3.62,2.29-5.499,3.307
		c-2.393,1.297-3.176,1.069-4.439-1.23c-1.59-2.894-2.533-6.067-3.527-9.186c-0.731-2.293,1.419-2.409,3.247-2.988
		c-3.533-1.104-6.569-1.847-9.946-0.179c-4.516,2.228-9.24,4.033-13.889,5.989c-0.594,0.249-1.385,0.792-1.885,0.13
		c-0.506-0.666,0.261-1.26,0.637-1.787c2.48-3.485,4.965-6.97,7.505-10.412c1.044-1.416,1.249-2.809,0.684-4.503
		c-1.14-3.413-2.45-6.748-3.923-10.028c-0.262-0.583-0.893-1.298-0.233-1.872c0.665-0.579,1.304,0.088,1.804,0.506
		c3.337,2.797,6.732,5.536,9.49,8.946c2.707,3.345,4.156,3.675,8.152,2.056c1.276-0.518,1.343-0.96,0.375-1.89
		c-2.398-2.3-2.416-2.377,0.154-4.514c7.334-6.09,15.656-10.323,24.77-13.055c2.251-0.675,3.979-0.1,5.468,1.737
		c1.886,2.325,3.601,4.755,4.996,7.396c0.661,1.248,1.521,1.829,2.962,2.128c5.771,1.194,11.087,3.406,15.338,7.692
		c0.373,0.376,0.779,0.803,1.254,0.979c4.711,1.751,7.336,5.85,10.525,9.301c1.554,1.68,0.984,3.388-0.286,4.945
		c-2.415,2.964-5.929,4.227-9.22,5.8c-6.433,3.077-13.229,3.546-20.168,2.508c-2.205-0.331-3.766,0.12-5.041,2.09
		c-1.32,2.041-3.377,3.322-5.73,3.965c-1.904,0.52-2.896-0.441-2.33-2.326C1021.945,839.857,1022.736,838.299,1023.501,836.449z"/>
	<path id="Ledge" fill="#2C2C2C" d="M800.385,445.304c9.504,14.678,14.055,28.977,25.377,41.596
		c4.15,4.627,6.538,10.842,11.636,14.598c11.036,8.131,16.855,9.625,21.42,23.43c3.003,9.082,7.545,17.108,11.278,26.079
		c4.81,11.559,3.063,13.991-1.936,24.164c-6.671,13.574-3.367,31.155,0.988,44.911c2.541,8.026,5.039,20.775,8.513,28.202
		c5.039,10.771,11.99,9.379,21.939,10.748c19.948,2.746,42.337,10.934,56.24,26.032c8.212,8.92,5.985,13.867,7.562,24.819
		c2.13,14.788,9.12,34.276,15.055,48.377c7.519,17.866,3.623,32.253,3.664,52.169c0.023,11.026-0.65,21.01,2.817,31.471
		c5.509,16.616,15.649,30.144,21.69,46.19c6.48,17.212,4.019,40.533,15.441,56.095c9.984,13.603,29.253,15.296,43.327,23.801
		c27.326,16.513,67.093,24.783,90.633,26.896c77.733,6.974,312.143,5.118,312.143,5.118s48.975-0.761,60.197-16.138
		c13.322-18.254,19.34-38.008,41.336-47.462c9.335-4.013,19.869-4.871,29.259-9.34c15.278-7.273,21.281-21.081,26.706-36.527
		c9.826-27.979,26.844-56.227,30.785-85.553c1.125-8.373-1.597-15.78-2.236-23.543c-0.937-11.358,0.048-23.232,0.048-34.641
		c0-25.841-2.187-51.657-2.074-77.238c0.171-38.675,4.848-75.475,10.916-113.552c2.912-18.268,9.91-45.663,22.438-59.279
		c9.706-10.552,23.905-14.194,32.477-26.71c12.413-18.125,18.761-39.009,26.732-59.687c5.814-15.083,13.948-31.062,15.64-46.982
		c2.929-27.563,7.346-55.547,7.283-83.415c-0.065-29.57,27.552-50.937,32.321-78.102V1000H800L800.385,445.304z"/>
	<g id="MAN">
		<path fill-rule="evenodd" clip-rule="evenodd" fill="#2C2C2C" d="M1522.51,140.068c0.039-10.573,9.029-19.583,19.539-19.58
			c10.822,0.003,19.92,9.062,19.946,19.861c0.026,10.787-9.11,19.866-19.938,19.813
			C1531.142,160.109,1522.469,151.194,1522.51,140.068z"/>
		<path fill-rule="evenodd" clip-rule="evenodd" fill="#2C2C2C" d="M1497.741,183.82c-7.738-0.034-13.758-5.965-13.755-13.554
			c0.002-7.689,6.201-13.783,13.973-13.736c7.622,0.046,13.797,6.29,13.638,13.791
			C1511.431,178.049,1505.474,183.854,1497.741,183.82z"/>
		<path fill-rule="evenodd" clip-rule="evenodd" fill="#2C2C2C" d="M1539.831,213.212c-0.027,6.644-5.193,11.869-11.787,11.922
			c-6.331,0.051-11.918-5.507-11.936-11.873c-0.019-6.628,5.542-12.202,12.016-12.047
			C1534.758,201.373,1539.857,206.599,1539.831,213.212z"/>
		<path fill-rule="evenodd" clip-rule="evenodd" fill="#2C2C2C" d="M1504.972,245.986c3.716,0.059,6.991,3.481,6.92,7.231
			c-0.071,3.781-3.454,7.074-7.163,6.974c-3.933-0.106-6.9-3.223-6.854-7.2C1497.917,249.114,1501.149,245.924,1504.972,245.986z"/>
		<path fill-rule="evenodd" clip-rule="evenodd" fill="#2C2C2C" d="M1556.728,175.439c-0.007,3.713-3.367,7.067-7.104,7.092
			c-3.688,0.024-7.075-3.367-7.093-7.102c-0.019-3.661,3.386-7.043,7.143-7.098C1553.353,168.278,1556.734,171.686,1556.728,175.439
			z"/>
		<path fill-rule="evenodd" clip-rule="evenodd" fill="#2C2C2C" d="M1494.474,213.225c3.896,0.051,7.023,3.226,6.974,7.079
			c-0.051,3.842-3.296,7.093-7.061,7.072c-3.727-0.021-6.947-3.37-6.927-7.205C1487.48,216.143,1490.479,213.173,1494.474,213.225z"
			/>
		<path fill-rule="evenodd" clip-rule="evenodd" fill="#2C2C2C" d="M1535.219,184.111c-0.055,2.165-1.635,3.751-3.685,3.564
			c-2.127-0.193-3.36-1.434-3.46-3.571c-0.099-2.104,1.849-3.931,3.946-3.71C1534.185,180.622,1535.249,181.929,1535.219,184.111z"
			/>
		<path fill-rule="evenodd" clip-rule="evenodd" fill="#2C2C2C" d="M1566.049,196.205c-0.077,2.213-1.944,3.994-3.888,3.786
			c-2.099-0.225-3.335-1.468-3.396-3.632c-0.061-2.167,1.503-3.685,3.656-3.592C1564.764,192.867,1565.831,194.27,1566.049,196.205z
			"/>
		<path fill-rule="evenodd" clip-rule="evenodd" fill="#2C2C2C" d="M1513.541,202.626c-0.11,1.625-1.303,2.836-3.424,2.969
			c-1.934,0.122-3.802-1.771-3.636-3.7c0.188-2.189,1.427-3.587,3.696-3.684C1512.173,198.127,1513.626,199.893,1513.541,202.626z"
			/>
		<path fill-rule="evenodd" clip-rule="evenodd" fill="#2C2C2C" d="M1486.048,195.199c0.037,2.017-1.641,3.784-3.635,3.674
			c-2.12-0.116-3.379-1.345-3.615-3.431c-0.218-1.916,1.54-3.728,3.523-3.816C1484.356,191.535,1486.009,193.119,1486.048,195.199z"
			/>
		<path fill-rule="evenodd" clip-rule="evenodd" fill="#2C2C2C" d="M1511.63,230.796c2.001,0.038,3.659,1.769,3.587,3.745
			c-0.07,1.962-1.888,3.701-3.824,3.499c-2.106-0.22-3.299-1.502-3.406-3.611C1507.881,232.392,1509.592,230.757,1511.63,230.796z"
			/>
		<path fill-rule="evenodd" clip-rule="evenodd" fill="#2C2C2C" d="M1494.246,242.167c-0.131,1.858-1.265,3.162-3.402,3.378
			c-1.908,0.193-3.912-1.681-3.835-3.605c0.086-2.125,1.325-3.433,3.435-3.686C1492.346,238.027,1494.192,239.874,1494.246,242.167z
			"/>
		<path fill-rule="evenodd" clip-rule="evenodd" fill="#2C2C2C" d="M1327.566,351.839c-5.473,1.341-32.194,4.293-35.03,0.602
			c-7.579-9.843-18.016-19.18-23.563-30.117c-7.767-15.3-14.141-27.832-22.025-43.06c-0.989-1.91-2.328-5.754-2.328-5.754
			s-2.473-8.001-2.693-9.987c-0.025-0.24-0.034-0.487-0.018-0.728c0.062-0.855,0.359-1.611,0.724-2.324
			c0.644-1.258,1.854-2.521,2.425-3.828c0.777-1.792,1.521-3.607,2.288-5.408c0.687-1.609,1.591-3.06,2.3-4.655
			c0.479-1.071,1.555-2.141,1.594-3.398c0.021-0.633,0.129-1.229,0.302-1.815c0.733-2.541,0.813-6.46,2.333-8.395
			c0.854-1.086,1.681-2.19,2.426-3.376c0.129-0.208,0.282-0.355,0.485-0.464c0.7-0.37,1.397-0.749,2.088-1.133
			c0.508-0.282,0.711-0.913,1.097-1.338c0.073-0.079,0.056-0.262,0.079-0.395c-0.051-0.368-0.104-0.736-0.154-1.105
			c-0.556-1.101-1.428-1.625-2.445-1.849c-0.771-0.168-1.54-0.073-2.31-0.056c-0.551,0.012-1.104-0.09-1.656,0.015
			c-1.846,0.35-3.502,1.141-4.936,2.524c-1.037,1-1.822,2.237-2.592,3.505c-0.957,1.576-2,3.057-3.368,4.178
			c-0.656,0.534-1.368,0.844-2.181,0.887c-0.274,0.015-0.467-0.062-0.654-0.313c-0.73-0.995-1.473-1.978-2.208-2.966
			c-0.087-0.116-0.173-0.229-0.21-0.383c-0.153-0.597-0.257-1.204-0.285-1.818c-0.021-0.444-0.08-0.874-0.184-1.302
			c-0.14-0.546-0.424-1.022-0.57-1.553c-0.254-0.889-0.452-1.794-0.557-2.721c-0.053-0.497-0.123-0.989-0.249-1.47
			c-0.266-0.958-0.604-1.877-1.239-2.597c-0.613-0.7-1.269-1.348-1.932-1.986c-0.705-0.676-1.495-0.938-2.369-0.825
			c-0.419,0.054-0.841,0.138-1.26,0.144c-0.848,0.012-1.494,0.412-1.965,1.199c-0.428,0.733-0.674,1.562-0.722,2.466
			c-0.065,1.273,0.041,2.542,0.266,3.804c0.028,0.166,0.065,0.33,0.113,0.563c-0.135-0.104-0.219-0.161-0.301-0.225
			c-0.476-0.385-0.983-0.69-1.541-0.877c-0.517-0.176-1.043-0.296-1.579-0.131c-0.699,0.219-1.391,0.456-2.082,0.685
			c-1.379,0.455-2.174,1.718-2.135,3.398c0.005,0.178,0.025,0.358,0.041,0.577c-0.069-0.057-0.105-0.078-0.131-0.11
			c-0.826-0.981-2.404-1.182-3.486-0.294c-0.438,0.357-0.896,0.67-1.346,0.998c-0.691,0.5-1.082,1.247-1.154,2.217
			c-0.066,0.838,0.18,1.627,0.363,2.427c0.141,0.647,0.348,1.273,0.572,1.967c-0.315-0.227-0.616-0.294-0.84-0.554
			c-0.794-0.926-1.58-1.859-2.294-2.874c-1.081-1.542-2.133-3.117-3.32-4.552c-0.686-0.822-1.163-1.771-1.505-2.82
			c-0.146-0.438-0.272-0.884-0.417-1.319c-0.458-1.395-0.956-2.77-1.767-3.956c-0.736-1.07-1.573-1.973-2.779-2.225
			c-0.347,0.047-0.701,0.094-1.049,0.141c-0.53,0.224-0.979,0.546-1.256,1.145c-0.201,0.452-0.252,0.952-0.31,1.453
			c0.091,0.645,0.175,1.289,0.259,1.935c0.102,0.377,0.216,0.753,0.314,1.134c0.514,2.021,1.22,3.937,2.39,5.607
			c0.558,0.796,1.005,1.675,1.396,2.599c0.594,1.401,1.197,2.805,2.086,4.004c1.223,1.658,2.467,8.43,2.635,9.304
			c0.165,0.826,0.597,1.533,0.855,2.324c0.211,0.651,0.313,1.329,0.512,1.973c0.596,1.876,1.243,3.731,1.837,5.604
			c1.3,4.09,4.954,7.765,7.571,10.926c0.564,0.683,1.045,1.398,1.329,2.284c4.667,14.256,7.093,19.892,10.815,34.417
			c1.086,4.244,5.981,20.235,7.379,24.387c5.606,16.659,6.895,21.681,13.06,35.33c1.614,3.571,3.786,6.865,5.536,10.373
			c2.542,5.11,5.383,9.874,9.108,14.211c1.817,2.117,3.924,5.032,6.524,6.229c2.558,1.18,5.356,1.198,8.114,1.285
			c7.821,0.233,16.173,0.973,23.81,0.433c7.92-0.571,26.009-0.191,31.901-0.276c25.795-0.381,31.657-8.093,43.021-1.354
			c4.753,2.825,9.693,73.995,9.732,81.799c0.094,19.002-5.462,38.755-0.912,57.1c1.031,4.148-1.465,7.416-4.017,10.668
			c-3.852,4.938-6.295,10.525-7.28,16.754c-0.534,3.367-0.858,6.816-1.731,10.098c-2.932,11.123-6.649,22.018-10.263,32.908
			c-9.072,27.309-13.692,55.338-13.897,84.074c-0.061,8.375,0.136,16.77-0.073,25.135c-0.206,8.77-0.794,17.42-3.948,25.863
			c-4.307,11.459-6.108,23.549-7.512,35.699c-1.327,11.498-2.72,22.988-4.083,34.502c-0.62,5.201-1.58,10.406,0.256,15.564
			c0.452,1.258-0.105,2.369-0.601,3.467c-2.557,5.711-5.455,11.283-7.609,17.139c-3.905,10.656-10.066,19.369-19.528,25.791
			c-4.348,2.943-8.118,6.639-11.617,10.564c-9.865,11.088-18.989,22.777-28.164,34.412c-5.053,6.424-10.174,12.785-14.71,19.602
			c-2.645,3.957-2.831,8.16-0.408,12.262c3.336,5.645,7.727,10.328,14.386,11.662c6.234,1.232,11.141,4.268,15.519,8.703
			c3.988,4.053,8.656,7.197,14.039,9.266c9.295,3.549,14.734,1.633,19.03-7.334c3.397-7.102,6.464-14.34,9.614-21.547
			c8.386-19.119,16.744-38.238,25.078-57.385c1.216-2.791,2.15-5.703,1.902-8.799c-0.237-2.82,0.501-5.334,1.623-7.869
			c5.085-11.523,10.621-22.793,10.84-35.9c0.118-7.398,1.875-14.77,2.68-22.184c1.11-10.203,3.051-20.121,8.038-29.258
			c2.701-4.951,5.332-9.957,7.916-14.986c3.894-7.563,7.208-15.32,8.11-23.92c0.547-5.309,0.761-10.682,1.747-15.914
			c2.585-13.809,7.801-26.699,14.743-38.85c5.264-9.24,10.156-18.566,12.971-28.893c1.551-5.717,3.377-11.338,5.081-17.016
			c0.174,1.883-0.048,3.66-0.168,5.469c-0.652,9.338-1.222,18.703-1.926,28.037c-0.429,5.74-1.13,11.369-4.173,16.525
			c-1.405,2.398-2.062,5.258-2.769,7.986c-3.087,11.924-4.554,24.143-6.324,36.309c-1.309,9.055-2.474,18.031-6.215,26.656
			c-7.116,16.365-13.758,32.969-18.956,50.053c-4.047,13.287-7.313,26.816-11.729,40.006c-4.028,12.053-7.857,24.168-11.571,36.307
			c-2.256,7.385-0.01,11.668,7.038,14.756c4.374,1.91,8.944,2.471,13.619,2.154c5.779-0.412,11.178,0.459,16.246,3.471
			c2.819,1.684,6.081,2.102,9.368,1.902c7.57-0.48,11.771-3.619,12.724-9.705c0.401-2.482,0.55-5.016,0.712-7.521
			c0.566-8.455,1.298-16.902,1.57-25.354c0.318-10.078,1.427-20.133,0.353-30.236c-0.877-8.074-2.691-15.965-1.408-24.305
			c2.416-15.834,4.075-31.783,6.013-47.682c0.172-1.453,0.521-2.734,1.668-3.74c4.738-4.191,7.488-9.693,10.114-15.287
			c4.571-9.768,9.048-19.563,14.145-29.102c7.099-13.291,12.615-27.27,15.014-42.275c0.94-5.936,3.684-10.758,7.499-15.213
			c4.798-5.582,10.507-10.355,14.885-16.314c6.495-8.857,10.48-19.051,15.242-28.855c8.945-18.371,15.682-37.406,15.505-58.217
			c-0.056-7.096,2.129-12.963,7.249-18.137c4.896-4.961,6.831-11.404,7.351-18.438c0.611-8.272,0.241-16.536,0.478-24.799
			c0.155-5.768,0.983-11.436,1.936-17.111c0.135-0.828,0.311-2.002,1.454-2.021c0.979-0.014,1.062,1.096,1.362,1.803
			c0.232,0.557,0.327,1.146,0.497,1.732c2.615,9.375,3.947,18.895,4.413,28.634c0.613,13.116,0.86,26.286-1.264,39.226
			c-3.953,24.195-10.284,47.865-16.126,71.648c-0.468,1.932-1.416,3.305-3.411,3.803c-6.808,1.771-10.46,6.689-13.137,12.779
			c-4.848,11.016-6.401,22.678-6.611,34.531c-0.075,4.271-0.015,8.672,2.004,12.734c3.122,6.221,9.512,8.539,15.779,5.561
			c4.258-2.01,7.622-5.105,9.268-9.531c4.978-13.387,8.979-27.027,8.043-41.549c-0.332-5.146-1.211-10.127-6.447-12.84
			c-1.33-0.693-1.396-1.744-1.059-3.082c1.098-4.391,2.195-8.795,3.086-13.24c3.552-17.596,8.857-34.771,12.001-52.459
			c3.872-21.719,4.96-43.412,0.521-65.203c-0.782-3.844-1.662-7.818-1.39-12.244c3.1,1.826,5.386,3.914,7.656,6.02
			c10.207,9.443,20.025,19.319,30.703,28.281c6.265,5.262,13.158,9.686,19.222,15.205c6.771,6.146,13.063,12.605,15.896,21.672
			c1.011,3.211,3.019,5.965,5.549,8.193c7.269,6.406,15.587,11.465,22.828,17.93c2.196,1.965,3.846,0.938,4.054-2.117
			c0.256-3.66-1.403-6.367-4.19-8.57c-1.172-0.945-2.626-1.744-2.855-3.766c9.741,4.83,10.7,9.264,6.941,16.26
			c-1.046,1.953-2.234,3.889-2.564,6.131c-0.284,1.896,0.38,3.398,2.286,4.086c1.814,0.654,3.18-0.113,4.083-1.666
			c0.811-1.396,1.46-2.883,2.229-4.303c0.319-0.592,0.46-1.521,1.323-1.463c0.923,0.061,0.783,1.023,0.963,1.648
			c0.583,2.039,0.946,4.158,2.1,5.971c0.618,0.998,1.505,1.682,2.751,1.533c1.403-0.137,1.721-1.295,1.948-2.377
			c0.295-1.379,0.48-2.768,0.573-4.174c0.374-5.674,0.756-11.35-3.021-16.246c-1.058-1.377-1.089-2.918-0.65-4.598
			c0.587-2.23,0.137-4.195-1.302-6.234c-5.486-7.73-12.55-13.701-20.698-18.279c-9.24-5.195-15.514-13.416-22.092-21.197
			c-8.979-10.597-16.09-22.703-25.732-32.832c-0.95-0.982-1.381-1.879-0.146-3.059c3.592-3.383,5.866-7.6,7.611-12.195
			c1.116-2.947,1.977-3.023,4.371-1.105c2.272,1.848,3.054,1.627,3.751-1.309c0.82-3.455,0.792-7.011,1.047-10.519
			c0.234-3.177-0.558-5.537-4.017-6.43c-2.072-0.543-2.003-1.861-0.943-3.458c1.282-1.935,2.577-3.878,3.596-5.948
			c1.84-3.76,0.968-6.118-3.126-7.074c-6.401-1.499-9.245-5.568-10.551-11.709c-5.399-25.427-10.616-50.892-15.674-76.395
			c-3.889-19.625-9.772-38.464-20.96-55.361c-4.51-6.813-9.987-12.279-17.312-16.024c-13.735-7.033-27.908-5.702-42.228-2.595
			c-5.813,1.26-10.629,4.817-16.04,7.012c-3.152,1.28-4.375,0.71-5.602-2.436c-1.871-4.782-2.044-9.836-2.318-14.873
			c-0.049-0.953,0.197-1.545,1.332-1.492c3.32,0.158,4.087-2.17,4.213-4.734c0.093-2.096-0.132-4.238-0.457-6.32
			c-0.91-5.884-1.899-11.797-4.928-17.039c-1.793-3.098-4.216-6.434-8.062-5.984c-3.94,0.46-6.308-1.296-8.819-3.494
			c-7.01-6.137-14.448-11.042-24.23-11.852c-15.273-1.268-28.516,3.406-38.431,18.494c-8.043,12.22-7.447,25.566-3.122,39.006
			c3.141,9.752,9.75,16.808,17.696,22.814c3.398,2.57,6.537,5.382,9.004,8.894c1.992,2.846,1.809,5.354-0.539,7.918
			c-1.768,1.926-4.085,2.927-6.416,3.909c-7.282,3.087-13.883,7.315-20.364,11.815c-6.942,4.81-29.844,13.077-33.601,14.438
			C1342.724,347.711,1343.7,347.874,1327.566,351.839z"/>
	</g>
</g>
<g>
	<path fill="none" d="M850.198,0c-7.332,10.3-15.945,28.897-18.534,34.197c-9.378,19.201-16.802,40.582-21.462,63.035
		c-12.735,61.36-10.319,134.624,18.912,185.948c11.094,19.477,26.313,34.996,35.628,56.398
		c36.566,84.019-7.943,192.61-30.134,270.818c-16.626,58.6-32.458,117.846-32.368,182.071c0.049,35.394,7.593,71.684,20.135,102.275
		c11.394,27.79,26.184,52.249,41.297,76.002c5.79,9.1,13.24,18.792,19.562,29.256H1800V0H850.198z"/>
	<path fill="#F8F8FF" d="M669.262,0H0v1000h687.034c-0.013-0.029-0.034-0.06-0.034-0.086C686.986,999.142,670.842,89.054,669.262,0z
		"/>
	<path fill="#F8F8FF" d="M822.374,894.742c-12.542-30.592-20.085-66.882-20.135-102.275c-0.09-64.226,15.742-123.472,32.368-182.071
		c22.19-78.208,66.7-186.799,30.134-270.818c-9.314-21.402-24.534-36.921-35.628-56.398
		c-29.23-51.324-31.646-124.588-18.912-185.948c4.66-22.453,12.084-43.833,21.462-63.035C834.253,28.897,842.866,10.3,850.198,0
		H669.262c1.58,89.054,17.724,999.142,17.738,999.914c0,0.026,0.021,0.057,0.034,0.086h196.199
		c-6.322-10.464-13.772-20.156-19.562-29.256C848.558,946.991,833.768,922.532,822.374,894.742z"/>
</g>
</svg>
