<?xml version="1.0" encoding="utf-8"?>
<!-- Generator: Adobe Illustrator 16.0.0, SVG Export Plug-In . SVG Version: 6.00 Build 0)  -->
<!DOCTYPE svg PUBLIC "-//W3C//DTD SVG 1.1//EN" "http://www.w3.org/Graphics/SVG/1.1/DTD/svg11.dtd">
<svg version="1.1" id="Background" xmlns="http://www.w3.org/2000/svg" xmlns:xlink="http://www.w3.org/1999/xlink" x="0px" y="0px"
	 width="1000px" height="1000px" viewBox="0 0 1000 1000" enable-background="new 0 0 1000 1000" xml:space="preserve">
<linearGradient id="Background_3_" gradientUnits="userSpaceOnUse" x1="499.9995" y1="0" x2="499.9995" y2="1000.0005">
	<stop  offset="0" style="stop-color:#7FF0D9"/>
	<stop  offset="0.1704" style="stop-color:#7DECDA"/>
	<stop  offset="0.3389" style="stop-color:#76E0DC"/>
	<stop  offset="0.5067" style="stop-color:#6ACCE0"/>
	<stop  offset="0.674" style="stop-color:#5AB0E6"/>
	<stop  offset="0.8395" style="stop-color:#458DED"/>
	<stop  offset="1" style="stop-color:#2C63F5"/>
</linearGradient>
<rect id="Background_1_" fill="url(#Background_3_)" width="1000" height="1000"/>
<linearGradient id="Background_4_" gradientUnits="userSpaceOnUse" x1="948.0791" y1="-33.998" x2="42.4993" y2="1045.2299">
	<stop  offset="0.0024" style="stop-color:#FFF0D9"/>
	<stop  offset="0.141" style="stop-color:#FBEEDA"/>
	<stop  offset="0.278" style="stop-color:#EFEADB"/>
	<stop  offset="0.4145" style="stop-color:#DBE2DE"/>
	<stop  offset="0.5506" style="stop-color:#BFD7E1"/>
	<stop  offset="0.6866" style="stop-color:#9BC9E6"/>
	<stop  offset="0.8225" style="stop-color:#6FB8EC"/>
	<stop  offset="0.9559" style="stop-color:#3CA3F3"/>
	<stop  offset="0.9946" style="stop-color:#2C9DF5"/>
</linearGradient>
<rect id="Background_2_" opacity="0.2" fill="url(#Background_4_)" width="1000" height="1000"/>
<linearGradient id="_x31__1_" gradientUnits="userSpaceOnUse" x1="453.7808" y1="2.3745" x2="453.7807" y2="505.6187">
	<stop  offset="0.0024" style="stop-color:#FFF0D9"/>
	<stop  offset="0.3722" style="stop-color:#FDF0D9"/>
	<stop  offset="0.5054" style="stop-color:#F6F1DA"/>
	<stop  offset="0.6003" style="stop-color:#EBF1DC"/>
	<stop  offset="0.6771" style="stop-color:#DAF2DF"/>
	<stop  offset="0.7429" style="stop-color:#C4F3E2"/>
	<stop  offset="0.8011" style="stop-color:#A8F5E6"/>
	<stop  offset="0.8538" style="stop-color:#88F7EB"/>
	<stop  offset="0.9023" style="stop-color:#62F9F0"/>
	<stop  offset="0.9473" style="stop-color:#37FCF7"/>
	<stop  offset="0.9873" style="stop-color:#09FEFE"/>
	<stop  offset="0.9946" style="stop-color:#00FFFF"/>
</linearGradient>
<polygon id="_x31_" opacity="0.1" fill="url(#_x31__1_)" points="874.187,0.16 0,348.747 0,503 907.563,-0.244 "/>
<path fill="#37B0C4" d="M1000,498.903c-31.447,6.326-60.229-10.509-88.273-22.307c-30.928-13.01-64.367-25.268-98.264-18.262
	c-20.304,4.196-39.36,12.334-59.182,18.17c-62.298,18.34-119.883,8.438-182.921,4.725c-44.655-2.63-80.966,25.436-123.041,35.194
	c-23.279,5.398-46.294,11.227-70.365,11.324c-38.86,0.157-70.958-14.906-100.963-38.468c-26.973-21.18-55.697-44.654-89.422-54.241
	c-31.236-8.879-66.193-6.277-97.257,2.005c-32.753,8.733-57.011,33.528-89.019,42.563L0,1000h1000V498.903z"/>
<linearGradient id="_x32__1_" gradientUnits="userSpaceOnUse" x1="405.0205" y1="292.4814" x2="523.7124" y2="498.0618">
	<stop  offset="0.0024" style="stop-color:#FFF0D9"/>
	<stop  offset="0.3722" style="stop-color:#FDF0D9"/>
	<stop  offset="0.5054" style="stop-color:#F6F1DA"/>
	<stop  offset="0.6003" style="stop-color:#EBF1DC"/>
	<stop  offset="0.6771" style="stop-color:#DAF2DF"/>
	<stop  offset="0.7429" style="stop-color:#C4F3E2"/>
	<stop  offset="0.8011" style="stop-color:#A8F5E6"/>
	<stop  offset="0.8538" style="stop-color:#88F7EB"/>
	<stop  offset="0.9023" style="stop-color:#62F9F0"/>
	<stop  offset="0.9473" style="stop-color:#37FCF7"/>
	<stop  offset="0.9873" style="stop-color:#09FEFE"/>
	<stop  offset="0.9946" style="stop-color:#00FFFF"/>
</linearGradient>
<polygon id="_x32_" opacity="0.1" fill="url(#_x32__1_)" points="909.563,-0.244 0,552.681 0,799 933.615,0 "/>
<path fill="#3391A0" d="M1000,651.859c-9.415-24.118-36.573-22.962-58.306-23.355c-31.764-0.577-60.46,9.64-90.557,18.274
	c-29.911,8.581-63.205,12.071-94.235,10.509c-60.163-3.032-117.967-51.57-178.518-30.622c-20.521,7.101-40.674,17.273-62.887,17.189
	c-23.109-0.087-46.038-8.648-68.773-12.156c-41.49-6.401-84.08-2.28-125.844-7.338c-30.166-3.652-60.504-8.307-90.982-7.029
	c-34.974,1.466-65.338,16.188-98.799,24.482c-42.715,10.59-95.208,3.125-129.807-25.434L0,1000h1000V651.859z"/>
<linearGradient id="_x33__1_" gradientUnits="userSpaceOnUse" x1="407.8408" y1="425.9463" x2="771.7826" y2="789.8881">
	<stop  offset="0.0024" style="stop-color:#FFF0D9"/>
	<stop  offset="0.3722" style="stop-color:#FDF0D9"/>
	<stop  offset="0.5054" style="stop-color:#F6F1DA"/>
	<stop  offset="0.6003" style="stop-color:#EBF1DC"/>
	<stop  offset="0.6771" style="stop-color:#DAF2DF"/>
	<stop  offset="0.7429" style="stop-color:#C4F3E2"/>
	<stop  offset="0.8011" style="stop-color:#A8F5E6"/>
	<stop  offset="0.8538" style="stop-color:#88F7EB"/>
	<stop  offset="0.9023" style="stop-color:#62F9F0"/>
	<stop  offset="0.9473" style="stop-color:#37FCF7"/>
	<stop  offset="0.9873" style="stop-color:#09FEFE"/>
	<stop  offset="0.9946" style="stop-color:#00FFFF"/>
</linearGradient>
<polygon id="_x33_" opacity="0.1" fill="url(#_x33__1_)" points="963.667,-0.122 557.882,1000 0,1000 0,830 936.615,0 "/>
<path fill-rule="evenodd" clip-rule="evenodd" fill="#1F5F66" d="M999.996,687.943c-16.357,9.268-30.089,25.091-44.419,37.095
	c-20.524,17.194-39.888,22.772-65.41,30.22c-17.044,4.973-31.952,11.639-47.696,19.705c-71.256,36.509-155.527,15.948-231.33,18.723
	c-25.587,0.936-48.827,11.599-71.889,21.772c-38.848,17.138-76.27,40.232-114.17,59.58c-19.342,9.874-38.735,20.639-60.104,25.423
	c-75.073,16.808-155.289-14.686-227.648,17.754c-23.311,10.45-44.378,9.6-69.345,10.688c-24.776,1.081-46.23,7.102-70.018,12.14
	C-3.364,941.323-0.188,994.135,0,1000h1000C1000,1000,1000,687.941,999.996,687.943z"/>
<linearGradient id="_x34__1_" gradientUnits="userSpaceOnUse" x1="633.3799" y1="339.3501" x2="1131.4407" y2="837.4108">
	<stop  offset="0.0024" style="stop-color:#FFF0D9"/>
	<stop  offset="0.3722" style="stop-color:#FDF0D9"/>
	<stop  offset="0.5054" style="stop-color:#F6F1DA"/>
	<stop  offset="0.6003" style="stop-color:#EBF1DC"/>
	<stop  offset="0.6771" style="stop-color:#DAF2DF"/>
	<stop  offset="0.7429" style="stop-color:#C4F3E2"/>
	<stop  offset="0.8011" style="stop-color:#A8F5E6"/>
	<stop  offset="0.8538" style="stop-color:#88F7EB"/>
	<stop  offset="0.9023" style="stop-color:#62F9F0"/>
	<stop  offset="0.9473" style="stop-color:#37FCF7"/>
	<stop  offset="0.9873" style="stop-color:#09FEFE"/>
	<stop  offset="0.9946" style="stop-color:#00FFFF"/>
</linearGradient>
<polygon id="_x34_" opacity="0.1" fill="url(#_x34__1_)" points="1000.059,0 963.667,1000 588,1000 967.667,-0.122 "/>
<path id="Turtle" fill-rule="evenodd" clip-rule="evenodd" fill="#37B0C4" d="M618.576,437.728
	c-2.122,1.252-2.882,2.859-3.818,4.304c-0.749,1.153-1.767,1.778-3.007,2.413c-3.032,1.548-5.435,0.074-7.816-1.262
	c-3.495-1.959-3.832-2.309-0.587-5.391c4.354-4.139,8.907-8.327,15.256-9.339c1.545-0.247,1.654-1.436,1.964-2.524
	c2.308-8.123,6.605-14.985,12.908-20.613c2.163-1.933,4.735-3.281,7.359-5.129c-3.359-1.711-6.597-1.589-9.905-1.346
	c-3.79,0.278-7.574,1.058-11.401,0.39c-1.003-0.175-2.073-0.322-2.32-1.515c-0.226-1.102,0.472-1.92,1.271-2.542
	c0.913-0.711,1.858-1.434,2.898-1.922c7.378-3.469,15.067-5.69,23.311-5.297c4.58,0.219,6.838,3.479,8.325,7.217
	c0.797,1.999,1.761,2.854,3.928,2.895c1.793,0.033,3.608,0.549,5.354,1.059c3.508,1.027,5.617,0.302,7.467-2.899
	c1.704-2.952,3.251-6.053,6.017-8.166c2.972-2.271,6.613-2.355,10.146-2.447c1.271-0.032,1.691,1.174,1.7,2.361
	c0.045,6.065-1.519,11.271-7.365,14.359c-1.887,0.996-3.787,2.064-4.712,4.249c-0.746,1.758-1.096,3.377-0.177,5.231
	c1.037,2.096,1.418,4.429,1.624,6.747c0.114,1.316,0.644,2.031,1.854,2.612c9.016,4.324,10.938,8.66,8.027,18.242
	c-1.657,5.452-4.531,10.317-7.704,15.011c-0.138,0.206-0.297,0.403-0.474,0.577c-0.996,0.977-1.909,2.266-3.582,1.602
	c-1.593-0.633-1.846-2.102-1.69-3.545c0.319-2.966,0.814-5.913,1.2-8.872c0.479-3.675,0.872-7.355-0.157-11.2
	c-0.376,0.317-0.622,0.432-0.726,0.624c-5.506,10.234-14.296,16.383-25.054,19.997c-1.97,0.661-3.134,1.425-3.051,3.734
	c0.066,1.865-1.032,3.471-2.025,5.013c-2.069,3.212-4.154,6.424-6.853,9.158c-2.524,2.559-3.215,2.521-5.147-0.384
	c-1.601-2.405-2.977-4.794-1.626-8.001c0.718-1.705,1.848-2.633,3.173-3.626c1.146-0.859,3.201-1.544,2.774-3.055
	c-0.312-1.1-2.384-0.381-3.663-0.434c-1.905-0.079-3.818,0.024-5.729,0.005c-5.45-0.054-7.581-2.279-8.041-7.755
	C618.221,444.883,618.369,441.525,618.576,437.728z"/>
<path id="Coral" fill-rule="evenodd" clip-rule="evenodd" fill="#1F5F66" d="M437.915,797.42c-0.078-2.047-0.174-4.095-0.663-6.097
	c-0.635-2.6-0.119-4.948,1.477-7.083c0.466-0.623,0.979-0.744,1.643-0.334c1.079,0.665,1.635,1.708,1.759,2.895
	c0.297,2.856,1.051,5.638,1.315,8.497c0.109,1.185,0.152,2.369,0.202,3.556c0.073,1.759,0.209,3.523,0.826,5.195
	c0.434,1.177,1.139,1.277,2.015,0.361c0.664-0.693,1.148-1.47,1.423-2.403c0.952-3.241,1.783-6.519,2.898-9.711
	c0.509-1.456,0.978-2.931,2.065-4.079c0.523-0.554,0.962-1.211,1.721-1.515c0.934-0.374,1.95-0.036,2.425,0.854
	c0.439,0.822,0.454,1.669,0.2,2.562c-0.493,1.738-1.208,3.397-1.746,5.119c-0.447,1.428-0.86,2.863-1.202,4.32
	c-0.507,2.159-1.485,4.104-2.652,5.983c-1.564,2.518-3.023,5.101-4.075,7.887c-0.9,2.384-1.102,4.847-0.922,7.377
	c0.171,2.413,0.313,4.826,0.823,7.195c0.491,2.278,0.707,4.623,1.6,6.806c0.287,0.702,0.597,1.399,1.045,2.015
	c0.613,0.842,1.051,0.804,1.74,0.049c0.484-0.532,0.646-1.132,0.821-1.797c0.961-3.664,1.15-7.442,1.681-11.167
	c0.156-1.098-0.036-2.248-0.099-3.372c-0.118-2.089-0.135-4.178,0.003-6.265c0.056-0.848-0.105-1.675-0.121-2.514
	c-0.047-2.548,0.625-4.903,2.019-7.027c0.606-0.925,1.802-0.751,2.235,0.271c0.357,0.842,0.368,1.759,0.506,2.646
	c0.022,0.142,0.02,0.288,0.051,0.428c0.041,0.178,0.084,0.37,0.315,0.403c0.247,0.034,0.381-0.111,0.471-0.313
	c0.622-1.39,1.214-2.798,1.179-4.354c-0.031-1.349,0.545-2.427,1.396-3.377c0.904-1.01,3-0.878,3.8,0.241
	c0.631,0.882,0.978,1.851,0.829,2.998c-0.207,1.591-0.651,3.066-1.492,4.445c-1.638,2.688-2.821,5.591-3.926,8.528
	c-0.433,1.15-0.949,2.267-1.317,3.442c-0.417,1.328-0.378,2.672-0.146,4.015c0.141,0.811,0.688,0.963,1.332,0.434
	c0.246-0.202,0.402-0.461,0.559-0.726c0.396-0.67,0.753-1.366,1.287-1.943c0.381-0.411,0.491-0.925,0.624-1.444
	c0.293-1.149,0.721-2.269,0.82-3.463c0.044-0.527,0.021-1.062,0.063-1.589c0.047-0.607,0.29-1.155,0.647-1.639
	c0.569-0.769,1.313-0.761,1.854,0.025c0.446,0.648,0.647,1.411,0.936,2.134c0.173,0.433,0.139,1.113,0.743,1.156
	c0.632,0.045,0.888-0.593,1.165-1.048c0.723-1.188,1.348-2.442,2.203-3.543c1.255-1.616,2.37-3.344,3.792-4.827
	c0.267-0.278,0.578-0.519,0.889-0.75c0.5-0.371,1.038-0.45,1.614-0.159c0.597,0.303,0.933,0.758,0.983,1.443
	c0.125,1.732-0.632,3.133-1.615,4.461c-1.197,1.617-2.625,3.033-3.946,4.543c-1.55,1.77-3.127,3.508-4.533,5.405
	c-1.279,1.726-2.785,3.271-4.292,4.806c-2.354,2.397-4.317,5.087-5.917,8.041c-1.968,3.635-3.421,7.488-4.829,11.359
	c-0.3,0.825-0.464,1.698-0.729,2.538c-0.418,1.331-0.927,2.623-1.645,3.831c-1.069,1.801-1.382,3.842-1.755,5.854
	c-0.276,1.49-0.483,2.992-0.713,4.49c-0.04,0.262-0.059,0.53-0.058,0.796c0.003,1.487,0.801,1.999,2.163,1.382
	c1.018-0.461,1.667-1.306,2.225-2.223c0.639-1.05,1.255-2.114,1.859-3.185c0.914-1.616,2.036-3.06,3.368-4.359
	c2.929-2.855,4.448-6.403,5.118-10.398c0.396-2.361,0.04-4.645-0.311-6.956c-0.158-1.046-0.353-2.1-0.214-3.175
	c0.129-0.999,0.524-1.839,1.288-2.507c0.767-0.67,1.796-0.521,2.285,0.377c0.244,0.447,0.413,0.936,0.618,1.405
	c0.089,0.204,0.146,0.452,0.418,0.48c0.295,0.03,0.435-0.201,0.561-0.409c0.722-1.191,1.308-2.463,2.135-3.591
	c0.363-0.495,0.749-0.975,1.141-1.448c0.461-0.559,1.051-0.848,1.788-0.734c0.753,0.116,0.981,0.714,1.197,1.333
	c0.308,0.883,0.174,1.738-0.116,2.588c-0.563,1.654-1.384,3.194-2.149,4.758c-1.226,2.502-2.482,4.989-3.436,7.615
	c-0.222,0.612-0.308,1.229-0.267,1.869c0.01,0.158,0.007,0.353,0.213,0.397c0.172,0.036,0.241-0.128,0.332-0.232
	c0.557-0.642,0.914-1.409,1.301-2.15c1.085-2.075,2.529-3.928,3.664-5.969c0.859-1.546,1.844-3.003,2.898-4.416
	c0.719-0.964,1.425-1.113,2.527-0.636c0.548,0.237,0.805,0.684,0.917,1.208c0.319,1.492,0.025,2.893-0.737,4.198
	c-1.023,1.752-2.11,3.466-3.225,5.161c-0.665,1.01-1.069,2.172-1.81,3.137c-1.322,1.723-2.682,3.408-4.332,4.842
	c-1.14,0.991-2.423,1.819-3.401,2.992c-0.275,0.329-0.527,0.679-0.783,1.023c-0.106,0.143-0.147,0.305,0.007,0.44
	c0.128,0.111,0.273,0.062,0.399-0.019c0.325-0.209,0.671-0.395,0.964-0.642c1.369-1.157,3.019-1.62,4.728-1.914
	c1.041-0.178,2.196,0.337,2.616,1.124c0.542,1.019,0.426,2.013-0.334,2.853c-1.36,1.501-2.916,2.786-4.845,3.477
	c-3.494,1.252-6.944,2.594-10.275,4.244c-1.702,0.843-3.182,1.935-4.373,3.407c-1.184,1.466-2.561,2.7-4.179,3.672
	c-1.192,0.716-2.313,1.561-3.543,2.199c-2.791,1.448-5.547,1.078-8.23-0.375c-1.848-1.001-3.534-2.228-5.047-3.686
	c-2.322-2.235-5.001-3.747-8.25-4.143c-0.671-0.082-1.312-0.31-1.952-0.535c-1.554-0.549-3.181-0.94-4.8-0.984
	c-1.896-0.051-3.808,0.021-5.711,0.113c-2.335,0.114-4.631,0.58-6.958,0.77c-0.924,0.075-1.844,0.036-2.757-0.114
	c-0.796-0.132-1.195-0.584-1.194-1.394c0.001-1.089,0.436-1.951,1.453-2.44c0.683-0.33,1.378-0.633,2.065-0.953
	c0.202-0.094,0.445-0.173,0.471-0.437c0.029-0.303-0.231-0.408-0.436-0.536c-1.211-0.765-2.51-1.394-3.564-2.395
	c-0.573-0.543-0.885-1.229-1.068-1.97c-0.164-0.664,0.307-1.25,1.042-1.416c0.991-0.223,1.945-0.109,2.901,0.213
	c3.222,1.087,6.443,2.176,9.68,3.219c1.912,0.616,3.89,0.992,5.839,1.471c0.393,0.097,0.763,0.05,1.014-0.254
	c0.267-0.322,0.144-0.703-0.031-1.041c-0.268-0.516-0.674-0.924-1.072-1.337c-1.323-1.374-2.628-2.778-4.266-3.784
	c-2.003-1.231-3.918-2.61-5.959-3.77c-2.085-1.186-3.869-2.696-5.519-4.397c-0.915-0.943-2.041-1.526-3.285-1.837
	c-1.672-0.418-3.274-1.061-4.948-1.468c-1.313-0.319-2.627-0.631-3.974-0.788c-0.982-0.114-1.941-0.354-2.821-0.815
	c-0.998-0.521-1.986-1.063-2.954-1.639c-0.681-0.404-1.191-0.993-1.558-1.702c-0.618-1.193-0.209-2.207,1.089-2.584
	c1.546-0.449,3.113-0.418,4.688-0.142c1.157,0.204,2.215,0.741,3.363,0.971c0.302,0.06,0.617,0.168,0.855-0.125
	c0.271-0.332,0.047-0.647-0.123-0.902c-0.976-1.466-2.048-2.861-3.167-4.221c-0.831-1.01-1.841-1.87-2.523-3.003
	c-0.52-0.863-0.821-1.789-0.675-2.81c0.12-0.832,0.499-1.179,1.347-1.234c0.842-0.055,1.631,0.167,2.35,0.595
	c2.449,1.457,4.62,3.227,6.373,5.506c1.197,1.557,2.573,2.979,3.731,4.562c1.124,1.537,2.189,3.117,3.358,4.622
	c0.284,0.365,0.598,0.907,1.097,0.693c0.555-0.238,0.347-0.849,0.238-1.321c-0.479-2.076-0.968-4.149-1.462-6.223
	c-0.148-0.623-0.221-1.24-0.151-1.885c0.133-1.223,0.94-1.871,2.156-1.664c1.717,0.292,2.71,1.431,3.351,2.942
	c0.532,1.256,0.687,2.613,0.938,3.938c0.461,2.432,1.219,4.766,2.227,7.013c0.667,1.485,1.683,2.685,2.98,3.741
	c2.158,1.758,4.08,3.785,5.873,5.928c2.195,2.625,4.355,5.275,6.34,8.064c0.867,1.219,1.622,2.517,2.605,3.652
	c1.222,1.409,2.544,2.723,3.858,4.045c0.365,0.367,0.809,0.637,1.323,0.744c0.295,0.062,0.653,0.149,0.861-0.137
	c0.209-0.289,0.115-0.627-0.061-0.928c-0.651-1.114-1.267-2.252-1.96-3.339c-1.498-2.35-3.076-4.648-4.543-7.017
	c-0.895-1.442-1.537-3.032-2.458-4.468c-1.813-2.827-3.723-5.593-5.376-8.521c-1.652-2.924-3.438-5.78-4.792-8.86
	c-0.846-1.924-1.186-3.998-1.374-6.091c-0.176-1.957-0.729-3.823-1.505-5.613c-0.451-1.041-1.407-1.688-2.251-2.398
	c-1.976-1.662-4.197-2.903-6.557-3.947c-2.134-0.945-4.222-2.01-5.92-3.679c-0.968-0.952-1.07-1.528-0.467-2.567
	c0.338-0.584,0.873-0.771,1.49-0.823c0.592-0.052,1.185-0.083,1.776-0.144c0.604-0.062,0.707-0.283,0.387-0.801
	c-0.604-0.979-1.644-1.46-2.491-2.158c-1.184-0.976-2.465-1.825-3.549-2.932c-0.95-0.969-1.286-2.11-1.204-3.418
	c0.037-0.593,0.293-1.054,0.837-1.34c0.745-0.393,1.522-0.58,2.369-0.46c1.814,0.257,3.333,1.034,4.549,2.429
	c0.6,0.689,1.287,1.301,1.909,1.976c1.097,1.188,1.886,2.569,2.704,3.941c0.462,0.773,0.934,1.511,1.65,2.135
	c0.651,0.567,1.033,1.448,1.518,2.201c0.318,0.493,0.813,0.738,1.307,0.984c0.333,0.165,0.501,0.033,0.501-0.335
	c0-0.288-0.01-0.573-0.114-0.848c-0.755-1.989-0.957-4.05-0.801-6.159c0.047-0.634,0.037-1.271,0.068-1.905
	c0.042-0.867,0.328-1.637,0.927-2.285c1.102-1.193,2.434-1.123,3.459,0.146c0.972,1.202,1.25,2.626,1.29,4.088
	c0.12,4.442,0.96,8.744,2.343,12.954c0.629,1.916,1.015,3.891,1.252,5.884c0.301,2.533,1.206,4.934,1.532,7.457
	c0.195,1.504,0.435,3.002,0.958,4.437c0.063,0.173,0.116,0.352,0.195,0.518c0.237,0.491,0.581,0.548,0.955,0.147
	c0.518-0.556,0.78-1.24,0.957-1.968c0.691-2.847,1.378-5.695,2.084-8.538c0.528-2.13,1.24-4.205,1.9-6.296
	c0.22-0.694,0.652-1.217,1.323-1.538c0.906-0.434,1.674-0.03,1.891,0.946c0.392,1.767,0.061,3.48-0.424,5.152
	c-1.18,4.065-1.737,8.255-2.603,12.381c-0.539,2.567,0.069,4.771,1.036,7.067c1.403,3.33,3.319,6.404,4.691,9.743
	c1.044,2.542,2.228,5.019,3.598,7.401c0.333,0.58,0.621,1.204,1.166,1.638c0.533,0.424,1.024,0.343,1.404-0.227
	c0.45-0.673,0.554-1.458,0.637-2.227c0.321-2.974,0.848-5.918,1.229-8.883c0.18-1.397-0.115-2.73-0.519-4.051
	c-0.445-1.451-0.958-2.877-1.576-4.265c-1.056-2.374-1.499-4.93-2.211-7.407c-0.857-2.978-0.859-6.082-1.576-9.065
	c-0.686-2.857-0.401-5.751-0.478-8.632c-0.092-3.459-0.781-6.795-2.201-9.954c-0.747-1.661-1.882-3.051-3.263-4.254
	c-0.471-0.409-0.917-0.87-1.337-1.337c-0.642-0.711-1.427-1.185-2.222-1.694c-1.917-1.229-3.912-2.375-5.152-4.433
	c-0.78-1.295-1.74-2.472-2.165-3.97c-0.245-0.866,0.005-1.54,0.564-2.137c0.563-0.601,1.269-0.764,2.083-0.577
	c1.349,0.309,2.373,1.146,3.245,2.121c1.759,1.966,3.554,3.903,5.218,5.954c0.616,0.76,1.171,1.591,2.106,2.026
	c0.678,0.315,1.002,0.128,1.032-0.625C437.927,798.117,437.915,797.769,437.915,797.42z"/>
<path id="Shark" fill-rule="evenodd" clip-rule="evenodd" fill="#3391A0" d="M459.624,598.979c2.121,2.334,2.106,2.757,0.087,4.386
	c-3.574,2.882-7.832,4.475-12.011,6.176c-5.859,2.384-11.797,4.563-18.017,5.849c-1.777,0.366-2.901,1.068-3.13,3.183
	c-0.271,2.481-1.662,4.547-3.702,6.076c-1.688,1.265-2.085,1.132-2.692-0.831c-0.245-0.787-0.479-1.577-0.729-2.399
	c-0.783,0.224-0.849,0.939-1.116,1.444c-2.851,5.4-7.211,9.486-11.673,13.484c-0.357,0.32-0.787,0.575-1.217,0.797
	c-0.874,0.455-1.829,0.938-2.71,0.159c-0.772-0.684-0.304-1.564-0.032-2.333c1.069-3.037,1.248-6.265,2.022-9.366
	c0.177-0.707,0.023-1.521-0.087-2.271c-0.216-1.47-0.974-2.125-2.591-1.924c-3.722,0.463-7.476,0.667-11.191,1.17
	c-9.023,1.222-18.034,0.572-27.052,0.012c-2.426-0.151-4.856-0.286-7.278-0.495c-1.229-0.105-1.98,0.342-2.39,1.502
	c-0.37,1.052-0.822,2.083-1.624,2.887c-1.178,1.18-2.39,0.972-3.14-0.526c-1.647-3.295-4.328-4.945-7.984-5.009
	c-10.208-0.178-20.425,0.188-30.629-0.354c-1.352-0.072-1.803,0.733-2.329,1.665c-2.636,4.669-5.355,9.293-9.198,13.1
	c-2.522,2.5-5.204,4.839-8.633,6.064c-0.763,0.272-1.667,0.718-2.342-0.021c-0.666-0.726-0.18-1.597,0.129-2.354
	c1.363-3.348,2.678-6.708,3.739-10.171c1.346-4.39,1.434-8.705-0.073-13.098c-1.905-5.555-4.046-10.944-8.038-15.413
	c-1.713-1.919-3.142-4.072-4.461-6.286c-0.307-0.515-0.919-1.027-0.498-1.68c0.487-0.756,1.276-0.4,1.906-0.216
	c5.267,1.547,10.051,3.991,14.271,7.551c4.38,3.694,8.233,7.893,11.813,12.33c1.527,1.891,3.122,2.194,5.291,1.533
	c3.521-1.072,7.076-2.032,10.639-2.959c1.086-0.282,1.917-0.696,2.369-1.781c0.593-1.421,1.617-2.08,3.16-1.482
	c1.387,0.538,2.596-0.134,3.838-0.507c14.638-4.4,29.273-8.801,43.898-13.238c3.239-0.982,5.672-4.468,5.329-7.815
	c-0.466-4.553-0.686-9.156-2.197-13.549c-0.712-2.068,0.68-1.668,1.785-1.386c5.534,1.419,10.265,4.187,14.085,8.47
	c1.573,1.766,3.24,3.451,4.743,5.271c1.025,1.24,2.124,1.742,3.777,1.608c12.605-1.018,25.229-1.704,37.884-1.327
	c10.226,0.305,20.433,0.824,30.288,3.943c1.179,0.373,2.949,0.321,3.154,1.914c0.197,1.537-1.274,2.379-2.364,3.2
	C468.947,596.8,465.013,599.261,459.624,598.979z"/>
<path id="Fish_1_" fill-rule="evenodd" clip-rule="evenodd" fill="#1F5F66" d="M223.501,836.449
	c-3.73,0.666-7.127-0.075-10.488-1.123c-1.053-0.328-1.944,0.155-2.805,0.675c-1.833,1.103-3.62,2.29-5.499,3.307
	c-2.394,1.297-3.176,1.069-4.439-1.23c-1.59-2.894-2.533-6.067-3.528-9.186c-0.731-2.293,1.419-2.409,3.248-2.988
	c-3.533-1.104-6.57-1.847-9.946-0.179c-4.516,2.228-9.241,4.033-13.89,5.989c-0.593,0.249-1.384,0.792-1.885,0.13
	c-0.506-0.666,0.261-1.26,0.637-1.787c2.481-3.485,4.965-6.97,7.505-10.412c1.044-1.416,1.249-2.809,0.684-4.503
	c-1.139-3.413-2.451-6.748-3.922-10.028c-0.262-0.583-0.893-1.298-0.234-1.872c0.666-0.579,1.304,0.088,1.803,0.506
	c3.337,2.797,6.732,5.536,9.491,8.946c2.707,3.345,4.156,3.675,8.152,2.056c1.276-0.518,1.342-0.96,0.374-1.89
	c-2.398-2.3-2.416-2.377,0.155-4.514c7.333-6.09,15.656-10.323,24.77-13.055c2.25-0.675,3.979-0.1,5.467,1.737
	c1.885,2.325,3.601,4.755,4.996,7.396c0.661,1.248,1.521,1.829,2.962,2.128c5.772,1.194,11.087,3.406,15.337,7.692
	c0.373,0.376,0.78,0.803,1.255,0.979c4.71,1.751,7.336,5.85,10.525,9.301c1.553,1.68,0.983,3.388-0.287,4.945
	c-2.416,2.964-5.928,4.227-9.22,5.8c-6.432,3.077-13.229,3.546-20.168,2.508c-2.205-0.331-3.766,0.12-5.04,2.09
	c-1.321,2.041-3.378,3.322-5.731,3.965c-1.904,0.52-2.896-0.441-2.33-2.326C221.946,839.857,222.737,838.299,223.501,836.449z"/>
</svg>
